{"glyphs":{"0":{"ha":949,"x_min":0,"x_max":0,"o":"m 69 488 b 476 989 69 788 229 989 b 879 488 722 989 879 788 b 476 -17 879 186 722 -17 b 69 488 229 -17 69 186 m 735 488 b 476 865 735 713 635 865 b 214 488 317 865 214 713 b 476 107 214 260 317 107 b 735 488 635 107 735 260 "},"1":{"ha":563,"x_min":0,"x_max":0,"o":"m 443 0 l 299 0 l 299 840 b 32 576 272 690 194 576 l 32 711 b 254 972 113 711 251 776 l 443 972 "},"2":{"ha":888,"x_min":0,"x_max":0,"o":"m 825 124 l 825 0 l 75 0 b 488 510 76 272 167 376 b 667 697 608 558 667 610 b 458 865 667 803 579 865 b 211 597 318 865 211 783 l 65 597 b 453 989 65 810 186 989 b 811 683 688 989 811 844 b 504 379 811 514 674 442 b 233 124 332 317 254 243 "},"3":{"ha":897,"x_min":0,"x_max":0,"o":"m 601 511 b 833 279 749 479 833 400 b 460 -17 833 103 689 -17 b 61 333 218 -17 61 122 l 207 333 b 453 107 207 197 300 107 b 688 286 593 107 688 175 b 393 456 688 397 574 456 l 393 563 b 647 703 546 563 647 603 b 435 865 647 803 560 865 b 218 650 303 865 218 783 l 74 650 b 440 989 74 854 222 989 b 792 707 647 989 792 872 b 601 511 792 608 725 540 "},"4":{"ha":919,"x_min":0,"x_max":0,"o":"m 872 276 l 736 276 l 736 0 l 593 0 l 593 276 l 29 276 l 29 399 b 514 972 149 504 367 724 l 736 972 l 736 399 l 872 399 m 593 399 l 593 878 b 208 399 476 678 308 496 "},"5":{"ha":899,"x_min":0,"x_max":0,"o":"m 519 696 b 840 369 689 696 840 585 b 454 -17 840 147 678 -17 b 56 342 246 -17 61 129 l 201 342 b 456 100 206 207 321 100 b 694 365 594 100 694 211 b 472 614 694 517 601 614 b 208 475 357 614 244 536 l 63 475 l 176 972 l 796 972 l 796 849 l 294 849 l 226 553 b 519 696 261 614 374 696 "},"6":{"ha":908,"x_min":0,"x_max":0,"o":"m 69 433 b 490 989 69 688 190 989 b 825 694 686 989 810 863 l 679 694 b 488 868 667 792 610 868 b 207 449 299 868 207 671 b 496 633 219 499 304 633 b 840 308 682 633 840 504 b 474 -17 840 118 692 -17 b 69 433 258 -17 69 113 m 694 317 b 469 526 694 442 600 526 b 226 313 329 526 226 429 b 465 97 226 197 325 97 b 694 317 600 97 694 192 "},"7":{"ha":814,"x_min":0,"x_max":0,"o":"m 793 972 l 793 850 b 251 0 579 626 361 306 l 90 0 b 628 850 201 304 443 661 l 35 850 l 35 972 "},"8":{"ha":869,"x_min":0,"x_max":0,"o":"m 617 514 b 804 278 732 471 804 386 b 440 -17 804 104 654 -17 b 65 278 221 -17 65 104 b 258 514 65 385 139 471 b 103 718 161 554 103 626 b 440 989 103 878 242 989 b 765 718 632 989 765 878 b 617 514 765 626 708 554 m 440 876 b 246 715 328 876 246 810 b 440 549 246 617 328 549 b 622 715 546 549 622 617 b 440 876 622 810 546 876 m 440 99 b 658 288 567 99 658 176 b 440 471 658 394 567 471 b 211 288 308 471 211 394 b 440 99 211 178 308 99 "},"9":{"ha":908,"x_min":0,"x_max":0,"o":"m 839 539 b 418 -17 839 285 718 -17 b 83 278 222 -17 99 110 l 229 278 b 421 104 242 181 299 104 b 701 524 610 104 701 301 b 413 339 688 474 604 339 b 68 664 226 339 68 468 b 435 989 68 854 217 989 b 839 539 650 989 839 860 m 214 656 b 439 446 214 531 308 446 b 682 660 579 446 682 543 b 443 875 682 775 583 875 b 214 656 308 875 214 781 "}," ":{"ha":328,"x_min":0,"x_max":0,"o":""},"A":{"ha":971,"x_min":0,"x_max":0,"o":"m 708 271 l 261 271 l 157 0 l 7 0 l 383 972 l 588 972 l 964 0 l 813 0 m 658 400 l 485 849 l 311 400 "},"Á":{"ha":971,"x_min":0,"x_max":0,"o":"m 510 1056 l 401 1056 l 588 1285 l 767 1285 m 708 271 l 261 271 l 157 0 l 7 0 l 383 972 l 588 972 l 964 0 l 813 0 m 658 400 l 485 849 l 311 400 "},"Ă":{"ha":971,"x_min":0,"x_max":0,"o":"m 483 1056 b 233 1286 338 1056 236 1150 l 338 1286 b 483 1136 339 1196 396 1136 b 629 1286 569 1136 628 1196 l 733 1286 b 483 1056 731 1150 629 1056 m 708 271 l 261 271 l 157 0 l 7 0 l 383 972 l 588 972 l 964 0 l 813 0 m 658 400 l 485 849 l 311 400 "},"Â":{"ha":971,"x_min":0,"x_max":0,"o":"m 333 1056 l 208 1056 l 397 1285 l 567 1285 l 756 1056 l 631 1056 l 482 1210 m 708 271 l 261 271 l 157 0 l 7 0 l 383 972 l 588 972 l 964 0 l 813 0 m 658 400 l 485 849 l 311 400 "},"Ä":{"ha":971,"x_min":0,"x_max":0,"o":"m 317 1075 b 231 1161 267 1075 231 1113 b 317 1250 231 1210 267 1250 b 404 1161 365 1250 404 1210 b 317 1075 404 1113 365 1075 m 653 1075 b 565 1161 603 1075 565 1113 b 653 1250 565 1210 603 1250 b 740 1161 701 1250 740 1210 b 653 1075 740 1113 701 1075 m 708 271 l 261 271 l 157 0 l 7 0 l 383 972 l 588 972 l 964 0 l 813 0 m 658 400 l 485 849 l 311 400 "},"À":{"ha":971,"x_min":0,"x_max":0,"o":"m 458 1042 l 201 1271 l 381 1271 l 567 1042 m 708 271 l 261 271 l 157 0 l 7 0 l 383 972 l 588 972 l 964 0 l 813 0 m 658 400 l 485 849 l 311 400 "},"Ā":{"ha":971,"x_min":0,"x_max":0,"o":"m 775 1056 l 192 1056 l 192 1143 l 775 1143 m 708 271 l 261 271 l 157 0 l 7 0 l 383 972 l 588 972 l 964 0 l 813 0 m 658 400 l 485 849 l 311 400 "},"Ą":{"ha":971,"x_min":0,"x_max":0,"o":"m 949 -172 b 1008 -146 976 -172 994 -164 l 1008 -206 b 917 -236 988 -226 953 -236 b 796 -131 840 -236 796 -190 b 857 0 796 -87 818 -37 l 813 0 l 708 271 l 261 271 l 157 0 l 7 0 l 383 972 l 588 972 l 964 0 l 953 0 b 900 -111 913 -40 900 -75 b 949 -172 900 -142 917 -172 m 658 400 l 485 849 l 311 400 "},"Å":{"ha":971,"x_min":0,"x_max":0,"o":"m 483 1050 b 311 1222 389 1050 311 1128 b 483 1394 311 1317 389 1394 b 656 1222 578 1394 656 1317 b 483 1050 656 1128 578 1050 m 483 1319 b 386 1222 429 1319 386 1276 b 483 1125 386 1168 429 1125 b 581 1222 538 1125 581 1168 b 483 1319 581 1276 538 1319 m 708 271 l 261 271 l 157 0 l 7 0 l 383 972 l 588 972 l 964 0 l 813 0 m 658 400 l 485 849 l 311 400 "},"Ã":{"ha":971,"x_min":0,"x_max":0,"o":"m 371 1163 b 288 1086 325 1163 293 1126 l 213 1086 b 379 1258 213 1200 300 1258 b 619 1164 474 1258 554 1164 b 700 1242 669 1164 696 1204 l 774 1242 b 611 1069 774 1118 679 1069 b 371 1163 526 1069 446 1163 m 708 271 l 261 271 l 157 0 l 7 0 l 383 972 l 588 972 l 964 0 l 813 0 m 658 400 l 485 849 l 311 400 "},"Æ":{"ha":1476,"x_min":0,"x_max":0,"o":"m 846 843 l 846 558 l 1372 558 l 1372 436 l 846 436 l 846 129 l 1406 129 l 1406 0 l 692 0 l 692 258 l 288 258 l 132 0 l -31 0 l 556 972 l 1406 972 l 1406 843 m 692 388 l 692 926 l 367 388 "},"B":{"ha":961,"x_min":0,"x_max":0,"o":"m 721 521 b 903 279 835 492 903 403 b 622 0 903 111 799 0 l 113 0 l 113 972 l 583 972 b 858 719 756 972 858 872 b 721 521 858 628 808 557 m 258 558 l 542 558 b 713 700 643 558 713 614 b 533 856 713 794 651 856 l 258 856 m 578 115 b 757 286 697 115 757 183 b 593 456 757 388 692 456 l 258 456 l 258 115 l 578 115 "},"C":{"ha":1018,"x_min":0,"x_max":0,"o":"m 58 482 b 528 989 58 781 257 989 b 963 576 775 989 950 824 l 817 576 b 528 867 799 750 696 867 b 206 483 342 867 206 711 b 529 106 206 258 343 106 b 817 376 693 106 801 214 l 963 376 b 529 -17 949 142 779 -17 b 58 482 256 -17 58 188 "},"Ć":{"ha":1018,"x_min":0,"x_max":0,"o":"m 793 1285 l 536 1056 l 428 1056 l 614 1285 m 58 482 b 528 989 58 781 257 989 b 963 576 775 989 950 824 l 817 576 b 528 867 799 750 696 867 b 206 483 342 867 206 711 b 529 106 206 258 343 106 b 817 376 693 106 801 214 l 963 376 b 529 -17 949 142 779 -17 b 58 482 256 -17 58 188 "},"Č":{"ha":1018,"x_min":0,"x_max":0,"o":"m 239 1285 l 363 1285 l 513 1131 l 661 1285 l 785 1285 l 596 1056 l 428 1056 m 529 106 b 817 376 693 106 801 214 l 963 376 b 529 -17 949 142 779 -17 b 58 482 256 -17 58 188 b 528 989 58 781 257 989 b 963 576 775 989 950 824 l 817 576 b 528 867 799 750 696 867 b 206 483 342 867 206 711 b 529 106 206 258 343 106 "},"Ç":{"ha":1018,"x_min":0,"x_max":0,"o":"m 529 106 b 817 376 693 106 801 214 l 963 376 b 550 -17 949 149 789 -8 l 483 -90 b 565 -58 506 -74 533 -58 b 671 -156 625 -58 671 -99 b 504 -292 671 -233 597 -292 b 360 -224 435 -292 382 -256 l 431 -181 b 510 -221 450 -208 485 -221 b 582 -160 550 -221 582 -196 b 532 -110 582 -132 563 -110 b 456 -143 508 -110 475 -121 l 376 -143 l 444 -10 b 58 482 215 28 58 218 b 528 989 58 781 257 989 b 963 576 775 989 950 824 l 817 576 b 528 867 799 750 696 867 b 206 483 342 867 206 711 b 529 106 206 258 343 106 "},"Ċ":{"ha":1018,"x_min":0,"x_max":0,"o":"m 419 1150 b 510 1239 419 1200 460 1239 b 601 1150 561 1239 601 1200 b 510 1058 601 1099 561 1058 b 419 1150 460 1058 419 1099 m 58 482 b 528 989 58 781 257 989 b 963 576 775 989 950 824 l 817 576 b 528 867 799 750 696 867 b 206 483 342 867 206 711 b 529 106 206 258 343 106 b 817 376 693 106 801 214 l 963 376 b 529 -17 949 142 779 -17 b 58 482 256 -17 58 188 "},"D":{"ha":1000,"x_min":0,"x_max":0,"o":"m 503 972 b 938 482 808 972 938 758 b 510 0 938 207 811 0 l 113 0 l 113 972 m 454 126 b 792 482 718 126 792 278 b 451 846 792 689 717 846 l 258 846 l 258 126 l 454 126 "},"Ð":{"ha":1000,"x_min":0,"x_max":0,"o":"m 503 972 b 938 482 808 972 938 758 b 510 0 938 207 811 0 l 113 0 l 113 454 l -74 454 l -74 543 l 113 543 l 113 972 l 503 972 m 454 126 b 792 482 718 126 792 278 b 451 846 792 689 717 846 l 258 846 l 258 543 l 463 543 l 463 454 l 258 454 l 258 126 l 454 126 "},"Ď":{"ha":1000,"x_min":0,"x_max":0,"o":"m 226 1285 l 350 1285 l 500 1131 l 649 1285 l 772 1285 l 583 1056 l 415 1056 m 503 972 b 938 482 808 972 938 758 b 510 0 938 207 811 0 l 113 0 l 113 972 l 503 972 m 454 126 b 792 482 718 126 792 278 b 451 846 792 689 717 846 l 258 846 l 258 126 l 454 126 "},"Đ":{"ha":1000,"x_min":0,"x_max":0,"o":"m 503 972 b 938 482 808 972 938 758 b 510 0 938 207 811 0 l 113 0 l 113 454 l -74 454 l -74 543 l 113 543 l 113 972 l 503 972 m 454 126 b 792 482 718 126 792 278 b 451 846 792 689 717 846 l 258 846 l 258 543 l 463 543 l 463 454 l 258 454 l 258 126 l 454 126 "},"E":{"ha":889,"x_min":0,"x_max":0,"o":"m 258 843 l 258 558 l 785 558 l 785 436 l 258 436 l 258 129 l 818 129 l 818 0 l 113 0 l 113 972 l 818 972 l 818 843 "},"É":{"ha":889,"x_min":0,"x_max":0,"o":"m 497 1056 l 389 1056 l 575 1285 l 754 1285 m 258 843 l 258 558 l 785 558 l 785 436 l 258 436 l 258 129 l 818 129 l 818 0 l 113 0 l 113 972 l 818 972 l 818 843 "},"Ě":{"ha":889,"x_min":0,"x_max":0,"o":"m 200 1285 l 324 1285 l 474 1131 l 622 1285 l 746 1285 l 557 1056 l 389 1056 m 258 843 l 258 558 l 785 558 l 785 436 l 258 436 l 258 129 l 818 129 l 818 0 l 113 0 l 113 972 l 818 972 l 818 843 "},"Ê":{"ha":889,"x_min":0,"x_max":0,"o":"m 321 1056 l 196 1056 l 385 1285 l 554 1285 l 743 1056 l 618 1056 l 469 1210 m 258 843 l 258 558 l 785 558 l 785 436 l 258 436 l 258 129 l 818 129 l 818 0 l 113 0 l 113 972 l 818 972 l 818 843 "},"Ë":{"ha":889,"x_min":0,"x_max":0,"o":"m 304 1075 b 218 1161 254 1075 218 1113 b 304 1250 218 1210 254 1250 b 392 1161 353 1250 392 1210 b 304 1075 392 1113 353 1075 m 640 1075 b 553 1161 590 1075 553 1113 b 640 1250 553 1210 590 1250 b 728 1161 689 1250 728 1210 b 640 1075 728 1113 689 1075 m 258 843 l 258 558 l 785 558 l 785 436 l 258 436 l 258 129 l 818 129 l 818 0 l 113 0 l 113 972 l 818 972 l 818 843 "},"Ė":{"ha":889,"x_min":0,"x_max":0,"o":"m 472 1058 b 382 1150 422 1058 382 1099 b 472 1239 382 1200 422 1239 b 564 1150 524 1239 564 1200 b 472 1058 564 1099 524 1058 m 258 843 l 258 558 l 785 558 l 785 436 l 258 436 l 258 129 l 818 129 l 818 0 l 113 0 l 113 972 l 818 972 l 818 843 "},"È":{"ha":889,"x_min":0,"x_max":0,"o":"m 447 1042 l 190 1271 l 369 1271 l 556 1042 m 258 843 l 258 558 l 785 558 l 785 436 l 258 436 l 258 129 l 818 129 l 818 0 l 113 0 l 113 972 l 818 972 l 818 843 "},"Ē":{"ha":889,"x_min":0,"x_max":0,"o":"m 764 1056 l 181 1056 l 181 1143 l 764 1143 m 258 843 l 258 558 l 785 558 l 785 436 l 258 436 l 258 129 l 818 129 l 818 0 l 113 0 l 113 972 l 818 972 l 818 843 "},"Ę":{"ha":889,"x_min":0,"x_max":0,"o":"m 258 843 l 258 558 l 785 558 l 785 436 l 258 436 l 258 129 l 818 129 l 818 0 l 750 0 b 699 -111 713 -40 699 -75 b 747 -171 699 -140 717 -171 b 807 -144 776 -171 794 -164 l 807 -206 b 717 -235 788 -225 753 -235 b 594 -129 639 -235 594 -190 b 668 0 594 -87 629 -31 l 113 0 l 113 972 l 818 972 l 818 843 "},"F":{"ha":861,"x_min":0,"x_max":0,"o":"m 265 843 l 265 556 l 790 556 l 790 426 l 265 426 l 265 0 l 113 0 l 113 972 l 818 972 l 818 843 "},"G":{"ha":1065,"x_min":0,"x_max":0,"o":"m 579 526 l 983 526 l 983 0 l 908 0 l 868 267 b 513 -17 818 96 683 -17 b 58 481 265 -17 58 192 b 547 989 58 775 274 989 b 983 613 792 989 968 831 l 835 613 b 540 869 817 764 704 869 b 211 482 354 869 211 707 b 553 103 211 258 363 103 b 842 417 717 103 842 232 l 579 417 "},"Ğ":{"ha":1065,"x_min":0,"x_max":0,"o":"m 538 1056 b 288 1286 393 1056 292 1150 l 392 1286 b 538 1136 393 1196 451 1136 b 683 1286 624 1136 682 1196 l 788 1286 b 538 1056 785 1150 683 1056 m 579 526 l 983 526 l 983 0 l 908 0 l 868 267 b 513 -17 818 96 683 -17 b 58 481 265 -17 58 192 b 547 989 58 775 274 989 b 983 613 792 989 968 831 l 835 613 b 540 869 817 764 704 869 b 211 482 354 869 211 707 b 553 103 211 258 363 103 b 842 417 717 103 842 232 l 579 417 "},"Ģ":{"ha":1065,"x_min":0,"x_max":0,"o":"m 579 526 l 983 526 l 983 0 l 908 0 l 868 267 b 513 -17 818 96 683 -17 b 58 481 265 -17 58 192 b 547 989 58 775 274 989 b 983 613 792 989 968 831 l 835 613 b 540 869 817 764 704 869 b 211 482 354 869 211 707 b 553 103 211 258 363 103 b 842 417 717 103 842 232 l 579 417 m 467 -56 l 582 -56 l 582 -171 b 478 -283 582 -246 525 -283 l 478 -249 b 528 -171 515 -249 528 -211 l 467 -171 "},"Ġ":{"ha":1065,"x_min":0,"x_max":0,"o":"m 543 1068 b 453 1160 493 1068 453 1108 b 543 1249 453 1210 493 1249 b 635 1160 594 1249 635 1210 b 543 1068 635 1108 594 1068 m 579 526 l 983 526 l 983 0 l 908 0 l 868 267 b 513 -17 818 96 683 -17 b 58 481 265 -17 58 192 b 547 989 58 775 274 989 b 983 613 792 989 968 831 l 835 613 b 540 869 817 764 704 869 b 211 482 354 869 211 707 b 553 103 211 258 363 103 b 842 417 717 103 842 232 l 579 417 "},"H":{"ha":1039,"x_min":0,"x_max":0,"o":"m 925 972 l 925 0 l 779 0 l 779 436 l 258 436 l 258 0 l 113 0 l 113 972 l 258 972 l 258 564 l 779 564 l 779 972 "},"Ħ":{"ha":1039,"x_min":0,"x_max":0,"o":"m 996 728 l 925 728 l 925 0 l 779 0 l 779 436 l 258 436 l 258 0 l 113 0 l 113 728 l 35 728 l 35 815 l 113 815 l 113 972 l 258 972 l 258 815 l 779 815 l 779 972 l 925 972 l 925 815 l 996 815 m 779 728 l 258 728 l 258 564 l 779 564 "},"I":{"ha":368,"x_min":0,"x_max":0,"o":"m 256 972 l 256 0 l 113 0 l 113 972 "},"Í":{"ha":368,"x_min":0,"x_max":0,"o":"m 471 1285 l 214 1056 l 106 1056 l 292 1285 m 256 972 l 256 0 l 113 0 l 113 972 "},"Î":{"ha":368,"x_min":0,"x_max":0,"o":"m 460 1056 l 335 1056 l 186 1210 l 38 1056 l -87 1056 l 101 1285 l 271 1285 m 113 972 l 256 972 l 256 0 l 113 0 "},"Ï":{"ha":368,"x_min":0,"x_max":0,"o":"m -65 1161 b 21 1250 -65 1210 -29 1250 b 108 1161 69 1250 108 1210 b 21 1075 108 1113 69 1075 b -65 1161 -29 1075 -65 1113 m 269 1161 b 357 1250 269 1210 307 1250 b 444 1161 406 1250 444 1210 b 357 1075 444 1113 406 1075 b 269 1161 307 1075 269 1113 m 256 972 l 256 0 l 113 0 l 113 972 "},"İ":{"ha":368,"x_min":0,"x_max":0,"o":"m 99 1150 b 189 1239 99 1200 139 1239 b 281 1150 240 1239 281 1200 b 189 1058 281 1099 240 1058 b 99 1150 139 1058 99 1099 m 256 972 l 256 0 l 113 0 l 113 972 "},"Ì":{"ha":368,"x_min":0,"x_max":0,"o":"m 272 1042 l 164 1042 l -93 1271 l 86 1271 m 256 972 l 256 0 l 113 0 l 113 972 "},"Ī":{"ha":368,"x_min":0,"x_max":0,"o":"m 481 1143 l 481 1056 l -103 1056 l -103 1143 m 256 972 l 256 0 l 113 0 l 113 972 "},"Į":{"ha":368,"x_min":0,"x_max":0,"o":"m 231 -171 b 290 -144 258 -171 276 -164 l 290 -206 b 199 -235 269 -225 235 -235 b 78 -129 122 -235 78 -190 b 144 0 78 -87 106 -37 l 113 0 l 113 972 l 256 972 l 256 0 l 235 0 b 182 -111 194 -40 182 -75 b 231 -171 182 -140 199 -171 "},"J":{"ha":810,"x_min":0,"x_max":0,"o":"m 704 972 l 704 329 b 374 -17 703 93 572 -17 b 31 396 157 -17 31 126 l 176 396 b 374 104 176 207 247 104 b 558 329 479 104 558 176 l 558 972 "},"K":{"ha":940,"x_min":0,"x_max":0,"o":"m 376 471 l 258 364 l 258 0 l 113 0 l 113 972 l 258 972 l 258 538 l 740 972 l 935 972 l 476 560 l 943 0 l 757 0 "},"Ķ":{"ha":940,"x_min":0,"x_max":0,"o":"m 943 0 l 757 0 l 376 471 l 258 364 l 258 0 l 113 0 l 113 972 l 258 972 l 258 538 l 740 972 l 935 972 l 476 560 m 413 -56 l 528 -56 l 528 -171 b 424 -283 528 -246 471 -283 l 424 -249 b 474 -171 461 -249 474 -211 l 413 -171 "},"L":{"ha":776,"x_min":0,"x_max":0,"o":"m 761 129 l 761 0 l 113 0 l 113 972 l 258 972 l 258 129 "},"Ĺ":{"ha":776,"x_min":0,"x_max":0,"o":"m 219 1056 l 111 1056 l 297 1285 l 476 1285 m 761 129 l 761 0 l 113 0 l 113 972 l 258 972 l 258 129 "},"Ľ":{"ha":776,"x_min":0,"x_max":0,"o":"m 761 129 l 761 0 l 113 0 l 113 972 l 258 972 l 258 129 m 368 -56 l 483 -56 l 483 -171 b 379 -283 483 -246 426 -283 l 379 -249 b 429 -171 417 -249 429 -211 l 368 -171 "},"Ļ":{"ha":776,"x_min":0,"x_max":0,"o":"m 761 129 l 761 0 l 113 0 l 113 972 l 258 972 l 258 129 m 368 -56 l 483 -56 l 483 -171 b 379 -283 483 -246 426 -283 l 379 -249 b 429 -171 417 -249 429 -211 l 368 -171 "},"Ŀ":{"ha":778,"x_min":0,"x_max":0,"o":"m 761 129 l 761 0 l 113 0 l 113 972 l 258 972 l 258 129 m 558 396 b 461 493 504 396 461 439 b 558 590 461 547 504 590 b 656 493 611 590 656 547 b 558 396 656 439 611 396 "},"Ł":{"ha":832,"x_min":0,"x_max":0,"o":"m 817 129 l 817 0 l 169 0 l 169 267 l 49 208 l 49 342 l 169 399 l 169 972 l 315 972 l 315 469 l 617 613 l 617 481 l 315 336 l 315 129 "},"M":{"ha":1278,"x_min":0,"x_max":0,"o":"m 1165 0 l 1019 0 l 1019 867 l 747 0 l 524 0 l 258 864 l 258 0 l 113 0 l 113 972 l 364 972 l 636 86 l 919 972 l 1165 972 "},"N":{"ha":1072,"x_min":0,"x_max":0,"o":"m 960 972 l 960 0 l 715 0 l 258 869 l 258 0 l 113 0 l 113 972 l 358 972 l 814 103 l 814 972 "},"Ń":{"ha":1072,"x_min":0,"x_max":0,"o":"m 561 1056 l 453 1056 l 639 1285 l 818 1285 m 960 972 l 960 0 l 715 0 l 258 869 l 258 0 l 113 0 l 113 972 l 358 972 l 814 103 l 814 972 "},"Ň":{"ha":1072,"x_min":0,"x_max":0,"o":"m 264 1285 l 388 1285 l 538 1131 l 686 1285 l 810 1285 l 621 1056 l 453 1056 m 960 972 l 960 0 l 715 0 l 258 869 l 258 0 l 113 0 l 113 972 l 358 972 l 814 103 l 814 972 "},"Ņ":{"ha":1072,"x_min":0,"x_max":0,"o":"m 960 972 l 960 0 l 715 0 l 258 869 l 258 0 l 113 0 l 113 972 l 358 972 l 814 103 l 814 972 m 474 -56 l 589 -56 l 589 -171 b 485 -283 589 -246 532 -283 l 485 -249 b 535 -171 522 -249 535 -211 l 474 -171 "},"Ŋ":{"ha":1072,"x_min":0,"x_max":0,"o":"m 593 -90 b 713 -137 622 -118 660 -137 b 814 0 778 -137 814 -97 l 258 824 l 258 0 l 113 0 l 113 972 l 317 972 l 814 235 l 814 972 l 960 972 l 960 0 b 740 -254 960 -136 886 -254 b 593 -206 682 -254 629 -237 "},"Ñ":{"ha":1072,"x_min":0,"x_max":0,"o":"m 422 1163 b 339 1086 376 1163 344 1126 l 264 1086 b 431 1258 264 1200 351 1258 b 671 1164 525 1258 606 1164 b 751 1242 721 1164 747 1204 l 825 1242 b 663 1069 825 1118 731 1069 b 422 1163 578 1069 497 1163 m 960 972 l 960 0 l 715 0 l 258 869 l 258 0 l 113 0 l 113 972 l 358 972 l 814 103 l 814 972 "},"O":{"ha":1060,"x_min":0,"x_max":0,"o":"m 60 489 b 531 988 60 782 249 988 b 1000 489 810 988 1000 782 b 531 -17 1000 193 810 -17 b 60 489 249 -17 60 193 m 856 486 b 531 864 856 701 729 864 b 206 486 329 864 206 701 b 531 107 206 271 329 107 b 856 486 729 107 856 271 "},"Ó":{"ha":1060,"x_min":0,"x_max":0,"o":"m 813 1285 l 556 1056 l 447 1056 l 633 1285 m 60 489 b 531 988 60 782 249 988 b 1000 489 810 988 1000 782 b 531 -17 1000 193 810 -17 b 60 489 249 -17 60 193 m 856 486 b 531 864 856 701 729 864 b 206 486 329 864 206 701 b 531 107 206 271 329 107 b 856 486 729 107 856 271 "},"Ô":{"ha":1060,"x_min":0,"x_max":0,"o":"m 379 1056 l 254 1056 l 443 1285 l 613 1285 l 801 1056 l 676 1056 l 528 1210 m 531 988 b 1000 489 810 988 1000 782 b 531 -17 1000 193 810 -17 b 60 489 249 -17 60 193 b 531 988 60 782 249 988 m 531 107 b 856 486 729 107 856 271 b 531 864 856 701 729 864 b 206 486 329 864 206 701 b 531 107 206 271 329 107 "},"Ö":{"ha":1060,"x_min":0,"x_max":0,"o":"m 276 1161 b 363 1250 276 1210 313 1250 b 450 1161 411 1250 450 1210 b 363 1075 450 1113 411 1075 b 276 1161 313 1075 276 1113 m 611 1161 b 699 1250 611 1210 649 1250 b 786 1161 747 1250 786 1210 b 699 1075 786 1113 747 1075 b 611 1161 649 1075 611 1113 m 60 489 b 531 988 60 782 249 988 b 1000 489 810 988 1000 782 b 531 -17 1000 193 810 -17 b 60 489 249 -17 60 193 m 856 486 b 531 864 856 701 729 864 b 206 486 329 864 206 701 b 531 107 206 271 329 107 b 856 486 729 107 856 271 "},"Ò":{"ha":1060,"x_min":0,"x_max":0,"o":"m 614 1042 l 506 1042 l 249 1271 l 428 1271 m 60 489 b 531 988 60 782 249 988 b 1000 489 810 988 1000 782 b 531 -17 1000 193 810 -17 b 60 489 249 -17 60 193 m 856 486 b 531 864 856 701 729 864 b 206 486 329 864 206 701 b 531 107 206 271 329 107 b 856 486 729 107 856 271 "},"Ő":{"ha":1060,"x_min":0,"x_max":0,"o":"m 658 1285 l 401 1056 l 293 1056 l 479 1285 m 933 1285 l 675 1056 l 568 1056 l 753 1285 m 60 489 b 531 988 60 782 249 988 b 1000 489 810 988 1000 782 b 531 -17 1000 193 810 -17 b 60 489 249 -17 60 193 m 856 486 b 531 864 856 701 729 864 b 206 486 329 864 206 701 b 531 107 206 271 329 107 b 856 486 729 107 856 271 "},"Ō":{"ha":1060,"x_min":0,"x_max":0,"o":"m 822 1143 l 822 1056 l 239 1056 l 239 1143 m 60 489 b 531 988 60 782 249 988 b 1000 489 810 988 1000 782 b 531 -17 1000 193 810 -17 b 60 489 249 -17 60 193 m 856 486 b 531 864 856 701 729 864 b 206 486 329 864 206 701 b 531 107 206 271 329 107 b 856 486 729 107 856 271 "},"Ø":{"ha":1060,"x_min":0,"x_max":0,"o":"m 860 860 b 1000 489 949 771 1000 642 b 531 -17 1000 193 810 -17 b 281 50 435 -17 351 7 l 185 -83 l 60 -83 l 201 114 b 60 489 111 203 60 335 b 531 988 60 782 249 988 b 781 921 625 988 710 964 l 876 1056 l 1000 1056 l 860 860 m 206 486 b 283 228 206 385 233 294 l 703 814 b 531 864 656 846 597 864 b 206 486 329 864 206 701 m 531 107 b 856 486 729 107 856 271 b 776 744 856 588 828 678 l 357 157 b 531 107 406 125 464 107 "},"Õ":{"ha":1060,"x_min":0,"x_max":0,"o":"m 418 1163 b 335 1086 372 1163 340 1126 l 260 1086 b 426 1258 260 1200 347 1258 b 667 1164 521 1258 601 1164 b 747 1242 717 1164 743 1204 l 821 1242 b 658 1069 821 1118 726 1069 b 418 1163 574 1069 493 1163 m 60 489 b 531 988 60 782 249 988 b 1000 489 810 988 1000 782 b 531 -17 1000 193 810 -17 b 60 489 249 -17 60 193 m 856 486 b 531 864 856 701 729 864 b 206 486 329 864 206 701 b 531 107 206 271 329 107 b 856 486 729 107 856 271 "},"Œ":{"ha":1635,"x_min":0,"x_max":0,"o":"m 1004 843 l 1004 558 l 1529 558 l 1529 436 l 1004 436 l 1004 129 l 1564 129 l 1564 0 l 858 0 l 858 113 b 531 -17 776 31 664 -17 b 60 489 249 -17 60 193 b 531 988 60 782 249 988 b 858 860 664 988 776 940 l 858 972 l 1564 972 l 1564 843 m 531 107 b 856 486 729 107 856 271 b 531 864 856 701 729 864 b 206 486 329 864 206 701 b 531 107 206 271 329 107 "},"P":{"ha":899,"x_min":0,"x_max":0,"o":"m 569 972 b 864 693 736 972 864 864 b 585 397 864 510 740 397 l 258 397 l 258 0 l 113 0 l 113 972 l 569 972 m 547 510 b 719 693 650 510 719 578 b 542 860 719 797 647 860 l 258 860 l 258 510 l 547 510 "},"Þ":{"ha":915,"x_min":0,"x_max":0,"o":"m 569 794 b 864 515 736 794 864 686 b 585 219 864 332 740 219 l 258 219 l 258 0 l 113 0 l 113 972 l 258 972 l 258 794 l 569 794 m 547 332 b 719 515 650 332 719 400 b 542 683 719 621 647 683 l 258 683 l 258 332 l 547 332 "},"Q":{"ha":1061,"x_min":0,"x_max":0,"o":"m 828 -56 l 746 33 b 531 -15 683 1 610 -15 b 60 490 249 -15 60 193 b 531 988 60 782 249 988 b 1000 490 810 988 1000 782 b 850 106 1000 331 944 196 l 1004 -56 m 531 108 b 653 132 575 108 617 117 l 410 394 l 576 394 l 757 204 b 856 488 819 274 856 374 b 531 865 856 701 729 865 b 206 488 329 865 206 701 b 531 108 206 271 329 108 "},"R":{"ha":976,"x_min":0,"x_max":0,"o":"m 690 431 b 932 0 856 417 843 167 l 765 0 b 547 399 704 158 735 399 l 258 399 l 258 1 l 113 1 l 113 972 l 590 972 b 894 693 753 972 894 899 b 690 431 894 514 793 449 m 571 517 b 749 685 699 517 749 582 b 571 853 749 786 699 853 l 258 853 l 258 517 "},"Ŕ":{"ha":976,"x_min":0,"x_max":0,"o":"m 529 1056 l 421 1056 l 607 1285 l 786 1285 m 690 431 b 932 0 856 417 843 167 l 765 0 b 547 399 704 158 735 399 l 258 399 l 258 1 l 113 1 l 113 972 l 590 972 b 894 693 753 972 894 899 b 690 431 894 514 793 449 m 571 517 b 749 685 699 517 749 582 b 571 853 749 786 699 853 l 258 853 l 258 517 "},"Ř":{"ha":976,"x_min":0,"x_max":0,"o":"m 231 1285 l 354 1285 l 504 1131 l 653 1285 l 776 1285 l 588 1056 l 419 1056 m 690 431 b 932 0 856 417 843 167 l 765 0 b 547 399 704 158 735 399 l 258 399 l 258 1 l 113 1 l 113 972 l 590 972 b 894 693 753 972 894 899 b 690 431 894 514 793 449 m 571 517 b 749 685 699 517 749 582 b 571 853 749 786 699 853 l 258 853 l 258 517 "},"Ŗ":{"ha":976,"x_min":0,"x_max":0,"o":"m 690 431 b 932 0 856 417 843 167 l 765 0 b 547 399 704 158 735 399 l 258 399 l 258 1 l 113 1 l 113 972 l 590 972 b 894 693 753 972 894 899 b 690 431 894 514 793 449 m 571 517 b 749 685 699 517 749 582 b 571 853 749 786 699 853 l 258 853 l 258 517 m 442 -56 l 557 -56 l 557 -171 b 453 -283 557 -246 500 -283 l 453 -249 b 503 -171 490 -249 503 -211 l 442 -171 "},"S":{"ha":913,"x_min":0,"x_max":0,"o":"m 201 381 b 479 101 201 172 343 101 b 713 260 597 101 713 154 b 443 426 713 361 617 389 b 81 700 282 461 81 508 b 444 989 81 847 200 989 b 825 625 717 989 825 811 l 679 625 b 447 871 679 785 608 871 b 226 713 304 871 226 794 b 478 561 226 619 324 596 b 860 267 651 524 860 467 b 475 -17 860 100 708 -17 b 56 381 218 -17 56 132 "},"Ś":{"ha":913,"x_min":0,"x_max":0,"o":"m 740 1285 l 483 1056 l 375 1056 l 561 1285 m 201 381 b 479 101 201 172 343 101 b 713 260 597 101 713 154 b 443 426 713 361 617 389 b 81 700 282 461 81 508 b 444 989 81 847 200 989 b 825 625 717 989 825 811 l 679 625 b 447 871 679 785 608 871 b 226 713 304 871 226 794 b 478 561 226 619 324 596 b 860 267 651 524 860 467 b 475 -17 860 100 708 -17 b 56 381 218 -17 56 132 "},"Š":{"ha":913,"x_min":0,"x_max":0,"o":"m 185 1285 l 308 1285 l 458 1131 l 607 1285 l 731 1285 l 542 1056 l 374 1056 m 478 561 b 860 267 651 524 860 467 b 475 -17 860 100 708 -17 b 56 381 218 -17 56 132 l 201 381 b 479 101 201 172 343 101 b 713 260 597 101 713 154 b 443 426 713 361 617 389 b 81 700 282 461 81 508 b 444 989 81 847 200 989 b 825 625 717 989 825 811 l 679 625 b 447 871 679 785 608 871 b 226 713 304 871 226 794 b 478 561 226 619 324 596 "},"Ş":{"ha":913,"x_min":0,"x_max":0,"o":"m 860 267 b 496 -17 860 106 717 -10 l 429 -90 b 511 -58 451 -74 479 -58 b 617 -156 571 -58 617 -99 b 450 -292 617 -233 543 -292 b 306 -224 381 -292 328 -256 l 376 -181 b 456 -221 396 -208 431 -221 b 528 -160 496 -221 528 -196 b 478 -110 528 -132 508 -110 b 401 -143 454 -110 421 -121 l 322 -143 l 390 -11 b 56 381 183 19 56 161 l 201 381 b 479 101 201 172 343 101 b 713 260 597 101 713 154 b 443 426 713 361 617 389 b 81 700 282 461 81 508 b 444 989 81 847 200 989 b 825 625 717 989 825 811 l 679 625 b 447 871 679 785 608 871 b 226 713 304 871 226 794 b 478 561 226 619 324 596 b 860 267 651 524 860 467 "},"Ș":{"ha":913,"x_min":0,"x_max":0,"o":"m 478 561 b 860 267 651 524 860 467 b 475 -17 860 100 708 -17 b 56 381 218 -17 56 132 l 201 381 b 479 101 201 172 343 101 b 713 260 597 101 713 154 b 443 426 713 361 617 389 b 81 700 282 461 81 508 b 444 989 81 847 200 989 b 825 625 717 989 825 811 l 679 625 b 447 871 679 785 608 871 b 226 713 304 871 226 794 b 478 561 226 619 324 596 m 396 -56 l 511 -56 l 511 -171 b 407 -283 511 -246 454 -283 l 407 -249 b 457 -171 444 -249 457 -211 l 396 -171 "},"T":{"ha":850,"x_min":0,"x_max":0,"o":"m 835 843 l 499 843 l 499 0 l 353 0 l 353 843 l 15 843 l 15 972 l 835 972 "},"Ŧ":{"ha":850,"x_min":0,"x_max":0,"o":"m 499 843 l 499 550 l 693 550 l 693 461 l 499 461 l 499 0 l 353 0 l 353 461 l 157 461 l 157 550 l 353 550 l 353 843 l 15 843 l 15 972 l 835 972 l 835 843 "},"Ť":{"ha":850,"x_min":0,"x_max":0,"o":"m 153 1285 l 276 1285 l 426 1131 l 575 1285 l 699 1285 l 510 1056 l 342 1056 m 835 843 l 499 843 l 499 0 l 353 0 l 353 843 l 15 843 l 15 972 l 835 972 "},"Ţ":{"ha":850,"x_min":0,"x_max":0,"o":"m 472 0 l 415 -89 b 497 -58 436 -71 468 -58 b 600 -156 551 -58 600 -99 b 433 -292 600 -233 526 -292 b 289 -224 364 -292 310 -256 l 360 -181 b 438 -221 379 -208 414 -221 b 511 -160 479 -221 511 -196 b 461 -110 511 -132 492 -110 b 385 -143 438 -110 404 -121 l 306 -143 l 397 0 l 353 0 l 353 843 l 15 843 l 15 972 l 835 972 l 835 843 l 499 843 l 499 0 "},"Ț":{"ha":850,"x_min":0,"x_max":0,"o":"m 835 843 l 499 843 l 499 0 l 353 0 l 353 843 l 15 843 l 15 972 l 835 972 m 367 -56 l 482 -56 l 482 -171 b 378 -283 482 -246 425 -283 l 378 -249 b 428 -171 415 -249 428 -211 l 367 -171 "},"U":{"ha":1004,"x_min":0,"x_max":0,"o":"m 104 972 l 250 972 l 250 350 b 507 104 253 200 369 104 b 756 350 644 104 756 201 l 756 972 l 900 972 l 900 342 b 507 -17 900 124 722 -17 b 104 342 289 -17 104 124 "},"Ú":{"ha":1004,"x_min":0,"x_max":0,"o":"m 781 1285 l 524 1056 l 415 1056 l 601 1285 m 104 972 l 250 972 l 250 350 b 507 104 253 200 369 104 b 756 350 644 104 756 201 l 756 972 l 900 972 l 900 342 b 507 -17 900 124 722 -17 b 104 342 289 -17 104 124 "},"Û":{"ha":1004,"x_min":0,"x_max":0,"o":"m 347 1056 l 222 1056 l 411 1285 l 581 1285 l 769 1056 l 644 1056 l 496 1210 m 900 972 l 900 342 b 507 -17 900 124 722 -17 b 104 342 289 -17 104 124 l 104 972 l 250 972 l 250 350 b 507 104 253 200 369 104 b 756 350 644 104 756 201 l 756 972 "},"Ü":{"ha":1004,"x_min":0,"x_max":0,"o":"m 244 1161 b 331 1250 244 1210 281 1250 b 418 1161 379 1250 418 1210 b 331 1075 418 1113 379 1075 b 244 1161 281 1075 244 1113 m 579 1161 b 667 1250 579 1210 617 1250 b 754 1161 715 1250 754 1210 b 667 1075 754 1113 715 1075 b 579 1161 617 1075 579 1113 m 104 972 l 250 972 l 250 350 b 507 104 253 200 369 104 b 756 350 644 104 756 201 l 756 972 l 900 972 l 900 342 b 507 -17 900 124 722 -17 b 104 342 289 -17 104 124 "},"Ù":{"ha":1004,"x_min":0,"x_max":0,"o":"m 582 1042 l 474 1042 l 217 1271 l 396 1271 m 104 972 l 250 972 l 250 350 b 507 104 253 200 369 104 b 756 350 644 104 756 201 l 756 972 l 900 972 l 900 342 b 507 -17 900 124 722 -17 b 104 342 289 -17 104 124 "},"Ű":{"ha":1004,"x_min":0,"x_max":0,"o":"m 626 1285 l 369 1056 l 261 1056 l 447 1285 m 901 1285 l 643 1056 l 536 1056 l 721 1285 m 104 972 l 250 972 l 250 350 b 507 104 253 200 369 104 b 756 350 644 104 756 201 l 756 972 l 900 972 l 900 342 b 507 -17 900 124 722 -17 b 104 342 289 -17 104 124 "},"Ū":{"ha":1004,"x_min":0,"x_max":0,"o":"m 790 1143 l 790 1056 l 207 1056 l 207 1143 m 104 972 l 250 972 l 250 350 b 507 104 253 200 369 104 b 756 350 644 104 756 201 l 756 972 l 900 972 l 900 342 b 507 -17 900 124 722 -17 b 104 342 289 -17 104 124 "},"Ų":{"ha":1004,"x_min":0,"x_max":0,"o":"m 900 972 l 900 342 b 589 -10 900 151 765 21 b 546 -110 557 -46 546 -76 b 596 -171 546 -140 564 -171 b 656 -144 624 -171 642 -162 l 656 -204 b 564 -235 635 -225 600 -235 b 443 -129 486 -235 443 -189 b 497 -17 443 -93 467 -49 b 104 342 283 -12 104 126 l 104 972 l 250 972 l 250 350 b 507 104 253 200 369 104 b 756 350 644 104 756 201 l 756 972 "},"Ů":{"ha":1004,"x_min":0,"x_max":0,"o":"m 326 1222 b 499 1394 326 1317 404 1394 b 671 1222 593 1394 671 1317 b 499 1050 671 1128 593 1050 b 326 1222 404 1050 326 1128 m 596 1222 b 499 1319 596 1276 553 1319 b 401 1222 444 1319 401 1276 b 499 1125 401 1168 444 1125 b 596 1222 553 1125 596 1168 m 104 972 l 250 972 l 250 350 b 507 104 253 200 369 104 b 756 350 644 104 756 201 l 756 972 l 900 972 l 900 342 b 507 -17 900 124 722 -17 b 104 342 289 -17 104 124 "},"V":{"ha":935,"x_min":0,"x_max":0,"o":"m 918 972 l 583 0 l 353 0 l 17 972 l 165 972 l 468 97 l 769 972 "},"W":{"ha":1375,"x_min":0,"x_max":0,"o":"m 1350 972 l 1104 0 l 882 0 l 688 846 l 493 0 l 271 0 l 26 972 l 169 972 l 388 107 l 586 972 l 789 972 l 988 107 l 1206 972 "},"Ẃ":{"ha":1375,"x_min":0,"x_max":0,"o":"m 713 1056 l 604 1056 l 790 1285 l 969 1285 m 1350 972 l 1104 0 l 882 0 l 688 846 l 493 0 l 271 0 l 26 972 l 169 972 l 388 107 l 586 972 l 789 972 l 988 107 l 1206 972 "},"Ŵ":{"ha":1375,"x_min":0,"x_max":0,"o":"m 536 1056 l 411 1056 l 600 1285 l 769 1285 l 958 1056 l 833 1056 l 685 1210 m 1350 972 l 1104 0 l 882 0 l 688 846 l 493 0 l 271 0 l 26 972 l 169 972 l 388 107 l 586 972 l 789 972 l 988 107 l 1206 972 "},"Ẅ":{"ha":1375,"x_min":0,"x_max":0,"o":"m 519 1075 b 433 1161 469 1075 433 1113 b 519 1250 433 1210 469 1250 b 607 1161 568 1250 607 1210 b 519 1075 607 1113 568 1075 m 856 1075 b 768 1161 806 1075 768 1113 b 856 1250 768 1210 806 1250 b 943 1161 904 1250 943 1210 b 856 1075 943 1113 904 1075 m 1350 972 l 1104 0 l 882 0 l 688 846 l 493 0 l 271 0 l 26 972 l 169 972 l 388 107 l 586 972 l 789 972 l 988 107 l 1206 972 "},"Ẁ":{"ha":1375,"x_min":0,"x_max":0,"o":"m 661 1042 l 404 1271 l 583 1271 l 769 1042 m 1350 972 l 1104 0 l 882 0 l 688 846 l 493 0 l 271 0 l 26 972 l 169 972 l 388 107 l 586 972 l 789 972 l 988 107 l 1206 972 "},"X":{"ha":931,"x_min":0,"x_max":0,"o":"m 754 0 l 465 378 l 176 0 l 3 0 l 378 492 l 10 972 l 185 972 l 465 606 l 746 972 l 921 972 l 553 492 l 929 0 "},"Y":{"ha":990,"x_min":0,"x_max":0,"o":"m 571 425 l 571 0 l 419 0 l 419 425 l 11 972 l 193 972 l 496 546 l 796 972 l 976 972 "},"Ý":{"ha":990,"x_min":0,"x_max":0,"o":"m 782 1285 l 525 1056 l 417 1056 l 603 1285 m 571 425 l 571 0 l 419 0 l 419 425 l 11 972 l 193 972 l 496 546 l 796 972 l 976 972 "},"Ŷ":{"ha":990,"x_min":0,"x_max":0,"o":"m 349 1056 l 224 1056 l 413 1285 l 582 1285 l 771 1056 l 646 1056 l 497 1210 m 976 972 l 571 425 l 571 0 l 419 0 l 419 425 l 11 972 l 193 972 l 496 546 l 796 972 "},"Ÿ":{"ha":990,"x_min":0,"x_max":0,"o":"m 246 1161 b 332 1250 246 1210 282 1250 b 419 1161 381 1250 419 1210 b 332 1075 419 1113 381 1075 b 246 1161 282 1075 246 1113 m 581 1161 b 668 1250 581 1210 618 1250 b 756 1161 717 1250 756 1210 b 668 1075 756 1113 717 1075 b 581 1161 618 1075 581 1113 m 571 425 l 571 0 l 419 0 l 419 425 l 11 972 l 193 972 l 496 546 l 796 972 l 976 972 "},"Ỳ":{"ha":990,"x_min":0,"x_max":0,"o":"m 582 1042 l 474 1042 l 217 1271 l 396 1271 m 571 425 l 571 0 l 419 0 l 419 425 l 11 972 l 193 972 l 496 546 l 796 972 l 976 972 "},"Z":{"ha":907,"x_min":0,"x_max":0,"o":"m 851 124 l 851 0 l 57 0 l 57 167 l 713 850 l 56 850 l 56 972 l 850 972 l 850 806 l 200 124 "},"Ź":{"ha":907,"x_min":0,"x_max":0,"o":"m 479 1056 l 371 1056 l 557 1285 l 736 1285 m 851 124 l 851 0 l 57 0 l 57 167 l 713 850 l 56 850 l 56 972 l 850 972 l 850 806 l 200 124 "},"Ž":{"ha":907,"x_min":0,"x_max":0,"o":"m 181 1285 l 304 1285 l 454 1131 l 603 1285 l 726 1285 l 538 1056 l 369 1056 m 851 124 l 851 0 l 57 0 l 57 167 l 713 850 l 56 850 l 56 972 l 850 972 l 850 806 l 200 124 "},"Ż":{"ha":907,"x_min":0,"x_max":0,"o":"m 453 1058 b 363 1150 403 1058 363 1099 b 453 1239 363 1200 403 1239 b 544 1150 504 1239 544 1200 b 453 1058 544 1099 504 1058 m 851 124 l 851 0 l 57 0 l 57 167 l 713 850 l 56 850 l 56 972 l 850 972 l 850 806 l 200 124 "},"a":{"ha":864,"x_min":0,"x_max":0,"o":"m 771 729 l 771 0 l 639 0 l 639 138 b 388 -17 586 42 499 -17 b 51 368 181 -17 51 146 b 382 746 51 588 176 746 b 639 589 494 746 585 686 l 639 729 m 411 94 b 638 368 540 94 638 203 b 413 633 638 536 539 633 b 190 367 274 633 190 517 b 411 94 190 215 274 94 "},"á":{"ha":864,"x_min":0,"x_max":0,"o":"m 440 799 l 332 799 l 518 1028 l 697 1028 m 771 729 l 771 0 l 639 0 l 639 138 b 388 -17 586 42 499 -17 b 51 368 181 -17 51 146 b 382 746 51 588 176 746 b 639 589 494 746 585 686 l 639 729 m 411 94 b 638 368 540 94 638 203 b 413 633 638 536 539 633 b 190 367 274 633 190 517 b 411 94 190 215 274 94 "},"ă":{"ha":851,"x_min":0,"x_max":0,"o":"m 415 797 b 167 1028 269 797 169 890 l 269 1028 b 415 878 271 938 331 878 b 561 1028 499 878 560 936 l 664 1028 b 415 797 661 890 561 797 m 771 729 l 771 0 l 639 0 l 639 138 b 388 -17 586 42 499 -17 b 51 368 181 -17 51 146 b 382 746 51 588 176 746 b 639 589 494 746 585 686 l 639 729 m 411 94 b 638 368 540 94 638 203 b 413 633 638 536 539 633 b 190 367 274 633 190 517 b 411 94 190 215 274 94 "},"â":{"ha":864,"x_min":0,"x_max":0,"o":"m 264 799 l 139 799 l 328 1028 l 496 1028 l 685 799 l 561 799 l 413 953 m 771 729 l 771 0 l 639 0 l 639 138 b 388 -17 586 42 499 -17 b 51 368 181 -17 51 146 b 382 746 51 588 176 746 b 639 589 494 746 585 686 l 639 729 m 411 94 b 638 368 540 94 638 203 b 413 633 638 536 539 633 b 190 367 274 633 190 517 b 411 94 190 215 274 94 "},"ä":{"ha":864,"x_min":0,"x_max":0,"o":"m 247 822 b 161 908 197 822 161 858 b 247 997 161 957 197 997 b 335 908 296 997 335 957 b 247 822 335 858 296 822 m 583 822 b 496 908 533 822 496 858 b 583 997 496 957 533 997 b 671 908 632 997 671 957 b 583 822 671 858 632 822 m 771 729 l 771 0 l 639 0 l 639 138 b 388 -17 586 42 499 -17 b 51 368 181 -17 51 146 b 382 746 51 588 176 746 b 639 589 494 746 585 686 l 639 729 m 411 94 b 638 368 540 94 638 203 b 413 633 638 536 539 633 b 190 367 274 633 190 517 b 411 94 190 215 274 94 "},"à":{"ha":864,"x_min":0,"x_max":0,"o":"m 390 799 l 133 1028 l 313 1028 l 499 799 m 771 729 l 771 0 l 639 0 l 639 138 b 388 -17 586 42 499 -17 b 51 368 181 -17 51 146 b 382 746 51 588 176 746 b 639 589 494 746 585 686 l 639 729 m 411 94 b 638 368 540 94 638 203 b 413 633 638 536 539 633 b 190 367 274 633 190 517 b 411 94 190 215 274 94 "},"ā":{"ha":864,"x_min":0,"x_max":0,"o":"m 707 799 l 124 799 l 124 886 l 707 886 m 771 729 l 771 0 l 639 0 l 639 138 b 388 -17 586 42 499 -17 b 51 368 181 -17 51 146 b 382 746 51 588 176 746 b 639 589 494 746 585 686 l 639 729 m 411 94 b 638 368 540 94 638 203 b 413 633 638 536 539 633 b 190 367 274 633 190 517 b 411 94 190 215 274 94 "},"ą":{"ha":818,"x_min":0,"x_max":0,"o":"m 722 -171 b 782 -144 750 -171 768 -164 l 782 -206 b 692 -235 763 -225 726 -235 b 569 -129 614 -235 569 -190 b 638 0 569 -87 597 -29 l 639 0 l 639 138 b 388 -17 586 42 499 -17 b 51 368 181 -17 51 146 b 382 746 51 588 176 746 b 639 589 494 746 585 686 l 639 729 l 771 729 l 771 0 l 726 0 b 674 -111 686 -40 674 -75 b 722 -171 674 -140 692 -171 m 411 94 b 638 368 540 94 638 203 b 413 633 638 536 539 633 b 190 367 274 633 190 517 b 411 94 190 215 274 94 "},"å":{"ha":864,"x_min":0,"x_max":0,"o":"m 411 794 b 239 967 317 794 239 872 b 411 1139 239 1061 317 1139 b 583 967 506 1139 583 1061 b 411 794 583 872 506 794 m 411 1064 b 314 967 357 1064 314 1021 b 411 869 314 913 357 869 b 508 967 465 869 508 913 b 411 1064 508 1021 465 1064 m 771 729 l 771 0 l 639 0 l 639 138 b 388 -17 586 42 499 -17 b 51 368 181 -17 51 146 b 382 746 51 588 176 746 b 639 589 494 746 585 686 l 639 729 m 411 94 b 638 368 540 94 638 203 b 413 633 638 536 539 633 b 190 367 274 633 190 517 b 411 94 190 215 274 94 "},"ã":{"ha":864,"x_min":0,"x_max":0,"o":"m 297 904 b 213 828 250 904 218 868 l 139 828 b 306 1000 139 943 225 1000 b 544 906 400 1000 479 906 b 626 983 594 906 622 946 l 700 983 b 538 811 700 860 606 811 b 297 904 451 811 372 904 m 771 729 l 771 0 l 639 0 l 639 138 b 388 -17 586 42 499 -17 b 51 368 181 -17 51 146 b 382 746 51 588 176 746 b 639 589 494 746 585 686 l 639 729 m 411 94 b 638 368 540 94 638 203 b 413 633 638 536 539 633 b 190 367 274 633 190 517 b 411 94 190 215 274 94 "},"æ":{"ha":1313,"x_min":0,"x_max":0,"o":"m 922 92 b 1126 228 1015 92 1096 138 l 1243 176 b 931 -17 1199 74 1099 -17 b 585 208 761 -17 636 74 b 307 -15 542 83 458 -15 b 68 179 156 -15 68 75 b 568 518 68 371 343 439 b 396 640 567 553 531 640 b 213 449 289 640 214 571 l 74 449 b 396 746 76 629 207 746 b 651 633 504 746 599 707 b 911 746 713 703 801 746 b 1265 338 1135 746 1263 568 l 697 338 b 922 92 697 194 785 92 m 911 638 b 703 438 807 638 718 561 l 1118 438 b 911 638 1103 568 1013 638 m 325 99 b 557 403 511 99 557 303 b 204 188 347 331 204 283 b 325 99 204 142 251 99 "},"b":{"ha":885,"x_min":0,"x_max":0,"o":"m 500 746 b 832 371 693 746 832 589 b 490 -17 832 144 689 -17 b 239 160 381 -17 286 51 l 239 0 l 100 0 l 100 972 l 239 972 l 239 571 b 500 746 283 675 388 746 m 469 89 b 693 369 599 89 693 207 b 469 639 693 525 599 639 b 238 360 335 639 238 524 b 469 89 238 206 335 89 "},"c":{"ha":810,"x_min":0,"x_max":0,"o":"m 53 365 b 413 746 53 585 206 746 b 761 450 610 746 756 624 l 622 450 b 418 636 618 558 531 636 b 192 365 290 636 192 521 b 421 94 192 214 290 94 b 622 265 535 94 621 165 l 761 265 b 413 -15 760 101 614 -15 b 53 365 206 -15 53 150 "},"ć":{"ha":810,"x_min":0,"x_max":0,"o":"m 690 1028 l 432 799 l 324 799 l 510 1028 m 53 365 b 413 746 53 585 206 746 b 761 450 610 746 756 624 l 622 450 b 418 636 618 558 531 636 b 192 365 290 636 192 521 b 421 94 192 214 290 94 b 622 265 535 94 621 165 l 761 265 b 413 -15 760 101 614 -15 b 53 365 206 -15 53 150 "},"č":{"ha":810,"x_min":0,"x_max":0,"o":"m 143 1028 l 268 1028 l 417 874 l 565 1028 l 689 1028 l 500 799 l 332 799 m 421 94 b 622 265 535 94 621 165 l 761 265 b 413 -15 760 101 614 -15 b 53 365 206 -15 53 150 b 413 746 53 585 206 746 b 761 450 610 746 756 624 l 622 450 b 418 636 618 558 531 636 b 192 365 290 636 192 521 b 421 94 192 214 290 94 "},"ç":{"ha":810,"x_min":0,"x_max":0,"o":"m 421 94 b 622 265 535 94 621 165 l 761 265 b 429 -15 760 106 622 -8 l 382 -89 b 464 -58 403 -71 435 -58 b 567 -156 518 -58 567 -99 b 400 -292 567 -233 493 -292 b 256 -224 331 -292 276 -256 l 326 -181 b 404 -221 346 -208 381 -221 b 478 -160 446 -221 478 -196 b 428 -110 478 -132 458 -110 b 351 -143 404 -110 371 -121 l 272 -143 l 357 -11 b 53 365 179 15 53 169 b 413 746 53 585 206 746 b 761 450 610 746 756 624 l 622 450 b 418 636 618 558 531 636 b 192 365 290 636 192 521 b 421 94 192 214 290 94 "},"ċ":{"ha":810,"x_min":0,"x_max":0,"o":"m 318 910 b 410 1001 318 960 358 1001 b 501 910 460 1001 501 960 b 410 817 501 858 460 817 b 318 910 358 817 318 858 m 53 365 b 413 746 53 585 206 746 b 761 450 610 746 756 624 l 622 450 b 418 636 618 558 531 636 b 192 365 290 636 192 521 b 421 94 192 214 290 94 b 622 265 535 94 621 165 l 761 265 b 413 -15 760 101 614 -15 b 53 365 206 -15 53 150 "},"d":{"ha":885,"x_min":0,"x_max":0,"o":"m 785 972 l 785 0 l 647 0 l 647 163 b 394 -17 600 53 506 -17 b 53 371 196 -17 53 144 b 385 746 53 589 193 746 b 646 571 497 746 601 675 l 646 972 m 417 89 b 647 360 550 89 647 206 b 417 639 647 524 550 639 b 192 369 286 639 192 525 b 417 89 192 207 286 89 "},"ð":{"ha":792,"x_min":0,"x_max":0,"o":"m 474 985 b 729 407 647 843 729 603 b 378 -17 729 151 603 -17 b 54 361 176 -17 54 153 b 365 746 54 568 174 746 b 581 604 519 746 568 643 b 390 901 568 694 501 818 l 271 782 l 207 847 l 311 951 b 126 994 257 976 194 993 l 126 1110 b 399 1038 232 1108 322 1082 l 485 1124 l 549 1060 l 474 985 m 392 83 b 596 368 526 83 596 225 b 385 646 596 497 547 646 b 193 368 261 646 193 506 b 392 83 193 225 263 83 "},"ď":{"ha":921,"x_min":0,"x_max":0,"o":"m 646 972 l 785 972 l 785 0 l 647 0 l 647 163 b 394 -17 600 53 506 -17 b 53 371 196 -17 53 144 b 385 746 53 589 193 746 b 646 571 497 746 601 675 m 978 972 l 978 857 b 872 744 978 782 921 744 l 872 779 b 924 857 911 779 924 817 l 863 857 l 863 972 m 417 89 b 647 360 550 89 647 206 b 417 639 647 524 550 639 b 192 369 286 639 192 525 b 417 89 192 207 286 89 "},"đ":{"ha":885,"x_min":0,"x_max":0,"o":"m 885 797 l 785 797 l 785 0 l 647 0 l 647 163 b 394 -17 600 53 506 -17 b 53 371 196 -17 53 144 b 385 746 53 589 193 746 b 646 571 497 746 601 675 l 646 797 l 418 797 l 418 885 l 646 885 l 646 972 l 785 972 l 785 885 l 885 885 m 417 89 b 647 360 550 89 647 206 b 417 639 647 524 550 639 b 192 369 286 639 192 525 b 417 89 192 207 286 89 "},"e":{"ha":808,"x_min":0,"x_max":0,"o":"m 53 361 b 407 746 53 569 185 746 b 761 338 631 746 758 568 l 193 338 b 418 92 193 194 281 92 b 622 228 511 92 592 138 l 739 176 b 426 -17 694 74 594 -17 b 53 361 200 -17 53 144 m 614 438 b 407 638 599 568 508 638 b 199 438 303 638 214 561 l 614 438 "},"é":{"ha":808,"x_min":0,"x_max":0,"o":"m 690 1028 l 433 799 l 325 799 l 511 1028 m 53 361 b 407 746 53 569 185 746 b 761 338 631 746 758 568 l 193 338 b 418 92 193 194 281 92 b 622 228 511 92 592 138 l 739 176 b 426 -17 694 74 594 -17 b 53 361 200 -17 53 144 m 614 438 b 407 638 599 568 508 638 b 199 438 303 638 214 561 l 614 438 "},"ě":{"ha":808,"x_min":0,"x_max":0,"o":"m 146 1028 l 269 1028 l 419 874 l 568 1028 l 692 1028 l 503 799 l 335 799 m 418 92 b 622 228 511 92 592 138 l 739 176 b 426 -17 694 74 594 -17 b 53 361 200 -17 53 144 b 407 746 53 569 185 746 b 761 338 631 746 758 568 l 193 338 b 418 92 193 194 281 92 m 407 638 b 199 438 303 638 214 561 l 614 438 b 407 638 599 568 508 638 "},"ê":{"ha":808,"x_min":0,"x_max":0,"o":"m 265 799 l 140 799 l 329 1028 l 497 1028 l 686 799 l 563 799 l 414 953 m 418 92 b 622 228 511 92 592 138 l 739 176 b 426 -17 694 74 594 -17 b 53 361 200 -17 53 144 b 407 746 53 569 185 746 b 761 338 631 746 758 568 l 193 338 b 418 92 193 194 281 92 m 407 638 b 199 438 303 638 214 561 l 614 438 b 407 638 599 568 508 638 "},"ë":{"ha":808,"x_min":0,"x_max":0,"o":"m 154 908 b 240 997 154 957 190 997 b 328 908 289 997 328 957 b 240 822 328 858 289 822 b 154 908 190 822 154 858 m 489 908 b 576 997 489 957 526 997 b 664 908 625 997 664 957 b 576 822 664 858 625 822 b 489 908 526 822 489 858 m 53 361 b 407 746 53 569 185 746 b 761 338 631 746 758 568 l 193 338 b 418 92 193 194 281 92 b 622 228 511 92 592 138 l 739 176 b 426 -17 694 74 594 -17 b 53 361 200 -17 53 144 m 614 438 b 407 638 599 568 508 638 b 199 438 303 638 214 561 l 614 438 "},"ė":{"ha":808,"x_min":0,"x_max":0,"o":"m 317 910 b 408 1001 317 960 357 1001 b 500 910 458 1001 500 960 b 408 817 500 858 458 817 b 317 910 357 817 317 858 m 53 361 b 407 746 53 569 185 746 b 761 338 631 746 758 568 l 193 338 b 418 92 193 194 281 92 b 622 228 511 92 592 138 l 739 176 b 426 -17 694 74 594 -17 b 53 361 200 -17 53 144 m 614 438 b 407 638 599 568 508 638 b 199 438 303 638 214 561 l 614 438 "},"è":{"ha":808,"x_min":0,"x_max":0,"o":"m 490 799 l 382 799 l 125 1028 l 304 1028 m 53 361 b 407 746 53 569 185 746 b 761 338 631 746 758 568 l 193 338 b 418 92 193 194 281 92 b 622 228 511 92 592 138 l 739 176 b 426 -17 694 74 594 -17 b 53 361 200 -17 53 144 m 614 438 b 407 638 599 568 508 638 b 199 438 303 638 214 561 l 614 438 "},"ē":{"ha":808,"x_min":0,"x_max":0,"o":"m 699 886 l 699 799 l 115 799 l 115 886 m 53 361 b 407 746 53 569 185 746 b 761 338 631 746 758 568 l 193 338 b 418 92 193 194 281 92 b 622 228 511 92 592 138 l 739 176 b 426 -17 694 74 594 -17 b 53 361 200 -17 53 144 m 614 438 b 407 638 599 568 508 638 b 199 438 303 638 214 561 l 614 438 "},"ę":{"ha":808,"x_min":0,"x_max":0,"o":"m 418 92 b 622 228 511 92 592 138 l 739 176 b 522 -6 704 94 633 21 b 475 -111 488 -43 475 -76 b 525 -172 475 -142 493 -172 b 585 -146 553 -172 571 -164 l 585 -206 b 493 -236 564 -226 529 -236 b 372 -131 415 -236 372 -190 b 428 -17 372 -94 396 -49 l 426 -17 b 53 361 200 -17 53 144 b 407 746 53 569 185 746 b 761 338 631 746 758 568 l 193 338 b 418 92 193 194 281 92 m 407 638 b 199 438 303 638 214 561 l 614 438 b 407 638 599 568 508 638 "},"f":{"ha":558,"x_min":0,"x_max":0,"o":"m 428 879 b 321 736 364 879 321 850 l 321 729 l 547 729 l 547 622 l 321 622 l 321 0 l 182 0 l 182 622 l 13 622 l 13 729 l 182 729 l 182 736 b 388 989 182 897 250 989 b 547 924 453 989 518 963 l 547 826 b 428 879 518 857 476 879 "},"g":{"ha":861,"x_min":0,"x_max":0,"o":"m 761 728 l 761 47 b 429 -269 761 -161 617 -269 b 96 -24 251 -269 108 -171 l 235 -24 b 426 -171 242 -111 326 -171 b 626 47 540 -171 626 -96 l 626 174 b 386 15 590 79 503 15 b 54 372 194 15 54 164 b 385 746 54 588 193 746 b 622 601 501 746 593 686 l 622 728 m 417 114 b 632 372 536 114 632 211 b 414 644 632 518 556 644 b 193 376 281 644 193 532 b 417 114 193 203 303 114 "},"ğ":{"ha":861,"x_min":0,"x_max":0,"o":"m 418 797 b 169 1028 272 797 172 890 l 272 1028 b 418 878 274 938 333 878 b 564 1028 501 878 561 936 l 667 1028 b 418 797 664 890 563 797 m 761 728 l 761 47 b 429 -269 761 -161 617 -269 b 96 -24 251 -269 108 -171 l 235 -24 b 426 -171 242 -111 326 -171 b 626 47 540 -171 626 -96 l 626 174 b 386 15 590 79 503 15 b 54 372 194 15 54 164 b 385 746 54 588 193 746 b 622 601 501 746 593 686 l 622 728 m 417 114 b 632 372 536 114 632 211 b 414 644 632 518 556 644 b 193 376 281 644 193 532 b 417 114 193 203 303 114 "},"ģ":{"ha":861,"x_min":0,"x_max":0,"o":"m 479 840 l 364 840 l 364 957 b 468 1068 364 1031 421 1068 l 468 1035 b 418 957 431 1035 418 997 l 479 957 m 761 728 l 761 47 b 429 -269 761 -161 617 -269 b 96 -24 251 -269 108 -171 l 235 -24 b 426 -171 242 -111 326 -171 b 626 47 540 -171 626 -96 l 626 174 b 386 15 590 79 503 15 b 54 372 194 15 54 164 b 385 746 54 588 193 746 b 622 601 501 746 593 686 l 622 728 m 417 114 b 632 372 536 114 632 211 b 414 644 632 518 556 644 b 193 376 281 644 193 532 b 417 114 193 203 303 114 "},"ġ":{"ha":861,"x_min":0,"x_max":0,"o":"m 421 817 b 329 910 369 817 329 858 b 421 1001 329 960 369 1001 b 513 910 471 1001 513 960 b 421 817 513 858 471 817 m 761 728 l 761 47 b 429 -269 761 -161 617 -269 b 96 -24 251 -269 108 -171 l 235 -24 b 426 -171 242 -111 326 -171 b 626 47 540 -171 626 -96 l 626 174 b 386 15 590 79 503 15 b 54 372 194 15 54 164 b 385 746 54 588 193 746 b 622 601 501 746 593 686 l 622 728 m 417 114 b 632 372 536 114 632 211 b 414 644 632 518 556 644 b 193 376 281 644 193 532 b 417 114 193 203 303 114 "},"h":{"ha":842,"x_min":0,"x_max":0,"o":"m 501 746 b 749 429 661 746 749 646 l 749 0 l 610 0 l 610 368 b 449 621 610 521 582 621 b 239 315 296 621 239 433 l 239 0 l 100 0 l 100 972 l 239 972 l 239 514 b 501 746 278 650 368 746 "},"ħ":{"ha":842,"x_min":0,"x_max":0,"o":"m 501 746 b 749 429 661 746 749 646 l 749 0 l 610 0 l 610 368 b 449 621 610 521 582 621 b 239 315 296 621 239 433 l 239 0 l 100 0 l 100 797 l 0 797 l 0 885 l 100 885 l 100 972 l 239 972 l 239 885 l 467 885 l 467 797 l 239 797 l 239 514 b 501 746 278 650 368 746 "},"i":{"ha":339,"x_min":0,"x_max":0,"o":"m 76 910 b 169 1003 76 963 115 1003 b 263 910 222 1003 263 963 b 169 818 263 857 222 818 b 76 910 115 818 76 857 m 239 729 l 239 0 l 100 0 l 100 729 "},"ı":{"ha":339,"x_min":0,"x_max":0,"o":"m 239 729 l 239 0 l 100 0 l 100 729 "},"í":{"ha":339,"x_min":0,"x_max":0,"o":"m 451 1028 l 194 799 l 86 799 l 272 1028 m 239 729 l 239 0 l 100 0 l 100 729 "},"î":{"ha":339,"x_min":0,"x_max":0,"o":"m 439 799 l 315 799 l 167 953 l 18 799 l -107 799 l 82 1028 l 250 1028 m 100 729 l 239 729 l 239 0 l 100 0 "},"ï":{"ha":339,"x_min":0,"x_max":0,"o":"m -85 908 b 1 997 -85 957 -47 997 b 89 908 50 997 89 957 b 1 822 89 858 50 822 b -85 908 -47 822 -85 858 m 250 908 b 338 997 250 957 288 997 b 425 908 386 997 425 957 b 338 822 425 858 386 822 b 250 908 288 822 250 858 m 239 729 l 239 0 l 100 0 l 100 729 "},"ì":{"ha":339,"x_min":0,"x_max":0,"o":"m 253 799 l 144 799 l -112 1028 l 67 1028 m 239 729 l 239 0 l 100 0 l 100 729 "},"ī":{"ha":339,"x_min":0,"x_max":0,"o":"m 461 886 l 461 799 l -122 799 l -122 886 m 239 729 l 239 0 l 100 0 l 100 729 "},"į":{"ha":339,"x_min":0,"x_max":0,"o":"m 169 817 b 78 910 118 817 78 858 b 169 1001 78 960 118 1001 b 261 910 219 1001 261 960 b 169 817 261 858 219 817 m 214 -172 b 274 -146 242 -172 260 -164 l 274 -206 b 182 -236 253 -226 218 -236 b 61 -131 104 -236 61 -190 b 136 0 61 -87 96 -29 l 100 0 l 100 729 l 239 729 l 239 0 l 217 0 b 164 -111 178 -40 164 -75 b 214 -172 164 -142 182 -172 "},"j":{"ha":357,"x_min":0,"x_max":0,"o":"m 93 911 b 186 1004 93 964 132 1004 b 278 911 238 1004 278 964 b 186 818 278 858 238 818 b 93 911 132 818 93 858 m -110 -75 b 14 -128 -81 -110 -33 -128 b 117 15 75 -128 117 -82 l 117 729 l 256 729 l 256 15 b 38 -244 256 -157 157 -244 b -110 -190 -22 -244 -75 -228 "},"ȷ":{"ha":357,"x_min":0,"x_max":0,"o":"m -110 -75 b 14 -128 -81 -110 -33 -128 b 117 15 75 -128 117 -82 l 117 729 l 256 729 l 256 15 b 38 -244 256 -157 157 -244 b -110 -190 -22 -244 -75 -228 "},"k":{"ha":731,"x_min":0,"x_max":0,"o":"m 575 0 l 321 349 l 239 267 l 239 0 l 100 0 l 100 972 l 239 972 l 239 436 l 528 729 l 703 729 l 415 442 l 747 0 "},"ķ":{"ha":731,"x_min":0,"x_max":0,"o":"m 747 0 l 575 0 l 321 349 l 239 267 l 239 0 l 100 0 l 100 972 l 239 972 l 239 436 l 528 729 l 703 729 l 415 442 m 321 -56 l 436 -56 l 436 -171 b 332 -283 436 -246 379 -283 l 332 -249 b 382 -171 369 -249 382 -211 l 321 -171 "},"l":{"ha":339,"x_min":0,"x_max":0,"o":"m 239 972 l 239 0 l 100 0 l 100 972 "},"ĺ":{"ha":339,"x_min":0,"x_max":0,"o":"m 489 1286 l 232 1057 l 124 1057 l 310 1286 m 239 972 l 239 0 l 100 0 l 100 972 "},"ľ":{"ha":375,"x_min":0,"x_max":0,"o":"m 100 972 l 239 972 l 239 0 l 100 0 m 432 972 l 432 857 b 328 744 432 782 375 744 l 328 779 b 378 857 365 779 378 817 l 317 857 l 317 972 "},"ļ":{"ha":339,"x_min":0,"x_max":0,"o":"m 239 972 l 239 0 l 100 0 l 100 972 m 108 -56 l 224 -56 l 224 -171 b 119 -283 224 -246 167 -283 l 119 -249 b 169 -171 157 -249 169 -211 l 108 -171 "},"ŀ":{"ha":518,"x_min":0,"x_max":0,"o":"m 239 972 l 239 0 l 100 0 l 100 972 m 331 397 b 428 493 331 450 374 493 b 525 397 481 493 525 450 b 428 299 525 343 481 299 b 331 397 374 299 331 343 "},"ł":{"ha":407,"x_min":0,"x_max":0,"o":"m 354 532 l 272 463 l 272 0 l 133 0 l 133 360 l 47 288 l 47 410 l 133 482 l 133 972 l 272 972 l 272 585 l 354 654 "},"m":{"ha":1261,"x_min":0,"x_max":0,"o":"m 947 746 b 1169 429 1126 746 1169 576 l 1169 0 l 1031 0 l 1031 368 b 885 621 1031 451 1032 621 b 704 315 740 621 704 457 l 704 0 l 565 0 l 565 368 b 419 621 565 451 567 621 b 239 315 275 621 239 457 l 239 0 l 100 0 l 100 729 l 239 729 l 239 544 b 482 746 278 664 357 746 b 697 522 624 746 681 640 b 947 746 733 654 814 746 "},"n":{"ha":842,"x_min":0,"x_max":0,"o":"m 501 746 b 749 429 661 746 749 646 l 749 0 l 610 0 l 610 368 b 449 621 610 521 582 621 b 239 315 296 621 239 433 l 239 0 l 100 0 l 100 729 l 239 729 l 239 514 b 501 746 278 650 368 746 "},"ń":{"ha":842,"x_min":0,"x_max":0,"o":"m 458 799 l 350 799 l 536 1028 l 715 1028 m 501 746 b 749 429 661 746 749 646 l 749 0 l 610 0 l 610 368 b 449 621 610 521 582 621 b 239 315 296 621 239 433 l 239 0 l 100 0 l 100 729 l 239 729 l 239 514 b 501 746 278 650 368 746 "},"ň":{"ha":842,"x_min":0,"x_max":0,"o":"m 161 1028 l 285 1028 l 433 874 l 582 1028 l 707 1028 l 518 799 l 350 799 m 501 746 b 749 429 661 746 749 646 l 749 0 l 610 0 l 610 368 b 449 621 610 521 582 621 b 239 315 296 621 239 433 l 239 0 l 100 0 l 100 729 l 239 729 l 239 514 b 501 746 278 650 368 746 "},"ņ":{"ha":842,"x_min":0,"x_max":0,"o":"m 501 746 b 749 429 661 746 749 646 l 749 0 l 610 0 l 610 368 b 449 621 610 521 582 621 b 239 315 296 621 239 433 l 239 0 l 100 0 l 100 729 l 239 729 l 239 514 b 501 746 278 650 368 746 m 371 -56 l 486 -56 l 486 -171 b 382 -283 486 -246 429 -283 l 382 -249 b 432 -171 419 -249 432 -211 l 371 -171 "},"ŋ":{"ha":842,"x_min":0,"x_max":0,"o":"m 501 746 b 749 429 661 746 749 646 l 749 0 b 531 -254 749 -136 676 -254 b 383 -206 472 -254 418 -237 l 383 -90 b 503 -137 413 -118 449 -137 b 610 0 567 -137 610 -104 l 610 368 b 449 621 610 521 582 621 b 239 315 296 621 239 433 l 239 0 l 100 0 l 100 729 l 239 729 l 239 514 b 501 746 278 650 368 746 "},"ñ":{"ha":842,"x_min":0,"x_max":0,"o":"m 307 906 b 222 828 260 906 228 868 l 147 828 b 315 1000 147 943 235 1000 b 554 907 410 1000 489 907 b 636 983 604 907 632 946 l 710 983 b 547 811 710 861 615 811 b 307 906 461 811 382 906 m 501 746 b 749 429 661 746 749 646 l 749 0 l 610 0 l 610 368 b 449 621 610 521 582 621 b 239 315 296 621 239 433 l 239 0 l 100 0 l 100 729 l 239 729 l 239 514 b 501 746 278 650 368 746 "},"o":{"ha":839,"x_min":0,"x_max":0,"o":"m 53 367 b 419 746 53 585 207 746 b 786 367 632 746 786 585 b 419 -17 786 147 632 -17 b 53 367 207 -17 53 147 m 647 367 b 419 633 647 518 553 633 b 192 367 285 633 192 518 b 419 94 192 213 285 94 b 647 367 553 94 647 213 "},"ó":{"ha":839,"x_min":0,"x_max":0,"o":"m 703 1028 l 446 799 l 338 799 l 524 1028 m 53 367 b 419 746 53 585 207 746 b 786 367 632 746 786 585 b 419 -17 786 147 632 -17 b 53 367 207 -17 53 147 m 647 367 b 419 633 647 518 553 633 b 192 367 285 633 192 518 b 419 94 192 213 285 94 b 647 367 553 94 647 213 "},"ô":{"ha":839,"x_min":0,"x_max":0,"o":"m 275 799 l 150 799 l 339 1028 l 508 1028 l 697 799 l 572 799 l 424 953 m 419 746 b 786 367 632 746 786 585 b 419 -17 786 147 632 -17 b 53 367 207 -17 53 147 b 419 746 53 585 207 746 m 419 94 b 647 367 553 94 647 213 b 419 633 647 518 553 633 b 192 367 285 633 192 518 b 419 94 192 213 285 94 "},"ö":{"ha":839,"x_min":0,"x_max":0,"o":"m 167 908 b 253 997 167 957 203 997 b 340 908 301 997 340 957 b 253 822 340 858 301 822 b 167 908 203 822 167 858 m 501 908 b 589 997 501 957 539 997 b 676 908 638 997 676 957 b 589 822 676 858 638 822 b 501 908 539 822 501 858 m 53 367 b 419 746 53 585 207 746 b 786 367 632 746 786 585 b 419 -17 786 147 632 -17 b 53 367 207 -17 53 147 m 647 367 b 419 633 647 518 553 633 b 192 367 285 633 192 518 b 419 94 192 213 285 94 b 647 367 553 94 647 213 "},"ò":{"ha":839,"x_min":0,"x_max":0,"o":"m 503 799 l 394 799 l 138 1028 l 317 1028 m 53 367 b 419 746 53 585 207 746 b 786 367 632 746 786 585 b 419 -17 786 147 632 -17 b 53 367 207 -17 53 147 m 647 367 b 419 633 647 518 553 633 b 192 367 285 633 192 518 b 419 94 192 213 285 94 b 647 367 553 94 647 213 "},"ő":{"ha":839,"x_min":0,"x_max":0,"o":"m 567 1028 l 310 799 l 201 799 l 388 1028 m 840 1028 l 583 799 l 475 799 l 661 1028 m 53 367 b 419 746 53 585 207 746 b 786 367 632 746 786 585 b 419 -17 786 147 632 -17 b 53 367 207 -17 53 147 m 647 367 b 419 633 647 518 553 633 b 192 367 285 633 192 518 b 419 94 192 213 285 94 b 647 367 553 94 647 213 "},"ō":{"ha":839,"x_min":0,"x_max":0,"o":"m 711 886 l 711 799 l 128 799 l 128 886 m 53 367 b 419 746 53 585 207 746 b 786 367 632 746 786 585 b 419 -17 786 147 632 -17 b 53 367 207 -17 53 147 m 647 367 b 419 633 647 518 553 633 b 192 367 285 633 192 518 b 419 94 192 213 285 94 b 647 367 553 94 647 213 "},"ø":{"ha":840,"x_min":0,"x_max":0,"o":"m 676 644 b 786 367 744 576 786 479 b 419 -17 786 147 632 -17 b 236 31 351 -17 289 0 l 197 -25 l 82 -25 l 163 88 b 53 367 93 156 53 254 b 419 746 53 585 207 746 b 601 700 486 746 549 729 l 636 750 l 751 750 l 676 644 m 192 367 b 239 194 192 300 208 242 l 531 603 b 419 633 499 622 461 633 b 192 367 286 633 192 518 m 419 94 b 647 367 554 94 647 213 b 599 536 647 432 629 492 l 306 128 b 419 94 339 107 378 94 "},"õ":{"ha":839,"x_min":0,"x_max":0,"o":"m 307 904 b 224 828 261 904 229 868 l 149 828 b 315 1000 149 943 236 1000 b 556 906 410 1000 490 906 b 636 983 606 906 632 946 l 710 983 b 547 811 710 860 615 811 b 307 904 463 811 382 904 m 53 367 b 419 746 53 585 207 746 b 786 367 632 746 786 585 b 419 -17 786 147 632 -17 b 53 367 207 -17 53 147 m 647 367 b 419 633 647 518 553 633 b 192 367 285 633 192 518 b 419 94 192 213 285 94 b 647 367 553 94 647 213 "},"œ":{"ha":1396,"x_min":0,"x_max":0,"o":"m 1007 92 b 1210 228 1099 92 1179 138 l 1326 176 b 1014 -17 1282 74 1182 -17 b 711 128 882 -17 776 39 b 419 -17 646 39 543 -17 b 53 367 207 -17 53 147 b 419 746 53 585 207 746 b 713 603 543 746 647 692 b 994 746 772 690 869 746 b 1349 338 1218 746 1346 568 l 785 338 b 782 306 785 326 783 317 b 1007 92 794 179 879 92 m 994 638 b 786 438 890 638 801 561 l 1201 438 b 994 638 1186 568 1096 638 m 419 94 b 643 311 536 94 624 185 b 640 361 642 328 640 344 b 643 417 640 381 642 399 b 419 633 625 543 538 633 b 192 367 285 633 192 518 b 419 94 192 213 285 94 "},"p":{"ha":885,"x_min":0,"x_max":0,"o":"m 490 746 b 832 358 689 746 832 585 b 500 -17 832 140 693 -17 b 239 158 388 -17 283 54 l 239 -243 l 100 -243 l 100 729 l 239 729 l 239 569 b 490 746 286 678 381 746 m 469 90 b 693 360 599 90 693 204 b 469 640 693 522 599 640 b 238 369 335 640 238 524 b 469 90 238 206 335 90 "},"þ":{"ha":885,"x_min":0,"x_max":0,"o":"m 500 746 b 832 371 693 746 832 589 b 490 -17 832 144 689 -17 b 240 157 381 -17 289 50 l 240 -243 l 101 -243 l 101 0 l 100 0 l 100 972 l 239 972 l 239 571 b 500 746 283 675 388 746 m 469 89 b 693 369 599 89 693 207 b 469 639 693 525 599 639 b 238 360 335 639 238 524 b 469 89 238 206 335 89 "},"q":{"ha":885,"x_min":0,"x_max":0,"o":"m 785 729 l 785 -243 l 646 -243 l 646 158 b 385 -17 601 54 497 -17 b 53 358 192 -17 53 140 b 394 746 53 585 196 746 b 646 569 504 746 599 678 l 646 729 m 415 90 b 647 369 550 90 647 206 b 415 640 647 524 550 640 b 192 360 286 640 192 522 b 415 90 192 204 286 90 "},"r":{"ha":508,"x_min":0,"x_max":0,"o":"m 239 540 b 486 742 272 668 375 742 l 486 592 b 411 606 468 599 438 606 b 239 413 331 606 239 533 l 239 0 l 100 0 l 100 729 l 239 729 l 239 540 "},"ŕ":{"ha":508,"x_min":0,"x_max":0,"o":"m 288 799 l 181 799 l 365 1028 l 546 1028 m 239 540 b 486 742 272 668 375 742 l 486 592 b 411 606 468 599 438 606 b 239 413 331 606 239 533 l 239 0 l 100 0 l 100 729 l 239 729 l 239 540 "},"ř":{"ha":508,"x_min":0,"x_max":0,"o":"m -12 1028 l 111 1028 l 261 874 l 410 1028 l 533 1028 l 344 799 l 176 799 m 239 540 b 486 742 272 668 375 742 l 486 592 b 411 606 468 599 438 606 b 239 413 331 606 239 533 l 239 0 l 100 0 l 100 729 l 239 729 l 239 540 "},"ŗ":{"ha":508,"x_min":0,"x_max":0,"o":"m 239 540 b 486 742 272 668 375 742 l 486 592 b 411 606 468 599 438 606 b 239 413 331 606 239 533 l 239 0 l 100 0 l 100 729 l 239 729 l 239 540 m 111 -56 l 226 -56 l 226 -171 b 122 -283 226 -246 169 -283 l 122 -249 b 172 -171 160 -249 172 -211 l 111 -171 "},"s":{"ha":740,"x_min":0,"x_max":0,"o":"m 183 263 b 390 89 183 114 338 89 b 554 204 468 89 554 129 b 376 310 554 278 468 292 b 69 518 249 333 69 356 b 367 746 69 644 182 746 b 661 482 596 746 661 590 l 522 482 b 369 640 521 560 489 640 b 208 528 290 640 208 604 b 375 429 208 465 269 447 b 693 218 499 407 693 382 b 383 -17 693 100 588 -17 b 44 263 157 -17 44 131 "},"ś":{"ha":740,"x_min":0,"x_max":0,"o":"m 653 1028 l 396 799 l 288 799 l 474 1028 m 183 263 b 390 89 183 114 338 89 b 554 204 468 89 554 129 b 376 310 554 278 468 292 b 69 518 249 333 69 356 b 367 746 69 644 182 746 b 661 482 596 746 661 590 l 522 482 b 369 640 521 560 489 640 b 208 528 290 640 208 604 b 375 429 208 465 269 447 b 693 218 499 407 693 382 b 383 -17 693 100 588 -17 b 44 263 157 -17 44 131 "},"š":{"ha":740,"x_min":0,"x_max":0,"o":"m 113 1028 l 238 1028 l 386 874 l 535 1028 l 658 1028 l 469 799 l 301 799 m 375 429 b 693 218 499 407 693 382 b 383 -17 693 100 588 -17 b 44 263 157 -17 44 131 l 183 263 b 390 89 183 114 338 89 b 554 204 468 89 554 129 b 376 310 554 278 468 292 b 69 518 249 333 69 356 b 367 746 69 644 182 746 b 661 482 596 746 661 590 l 522 482 b 369 640 521 560 489 640 b 208 528 290 640 208 604 b 375 429 208 465 269 447 "},"ş":{"ha":740,"x_min":0,"x_max":0,"o":"m 693 218 b 399 -17 693 103 593 -11 l 351 -89 b 433 -58 372 -71 404 -58 b 536 -156 488 -58 536 -99 b 369 -292 536 -233 463 -292 b 225 -224 300 -292 246 -256 l 296 -181 b 374 -221 315 -208 350 -221 b 447 -160 415 -221 447 -196 b 397 -110 447 -132 428 -110 b 321 -143 374 -110 340 -121 l 242 -143 l 325 -14 b 44 263 138 10 44 142 l 183 263 b 390 89 183 114 338 89 b 554 204 468 89 554 129 b 376 310 554 278 468 292 b 69 518 249 333 69 356 b 367 746 69 644 182 746 b 661 482 596 746 661 590 l 522 482 b 369 640 521 560 489 640 b 208 528 290 640 208 604 b 375 429 208 465 269 447 b 693 218 499 407 693 382 "},"ș":{"ha":740,"x_min":0,"x_max":0,"o":"m 375 429 b 693 218 499 407 693 382 b 383 -17 693 100 588 -17 b 44 263 157 -17 44 131 l 183 263 b 390 89 183 114 338 89 b 554 204 468 89 554 129 b 376 310 554 278 468 292 b 69 518 249 333 69 356 b 367 746 69 644 182 746 b 661 482 596 746 661 590 l 522 482 b 369 640 521 560 489 640 b 208 528 290 640 208 604 b 375 429 208 465 269 447 m 315 -56 l 431 -56 l 431 -171 b 326 -283 431 -246 374 -283 l 326 -249 b 376 -171 364 -249 376 -211 l 315 -171 "},"ß":{"ha":876,"x_min":0,"x_max":0,"o":"m 385 239 b 532 103 392 163 451 103 b 690 268 621 103 690 176 b 376 476 690 417 561 476 l 376 585 b 590 722 488 590 590 614 b 426 871 590 811 521 871 b 239 638 325 871 239 799 l 239 0 l 100 0 l 100 638 b 425 989 100 867 243 989 b 725 731 603 989 725 875 b 542 544 725 593 611 553 b 829 274 672 532 829 449 b 532 -17 829 106 706 -17 b 267 194 407 -17 292 57 "},"t":{"ha":571,"x_min":0,"x_max":0,"o":"m 424 100 b 543 158 476 100 518 124 l 543 38 b 389 -17 507 0 447 -17 b 176 235 243 -17 176 88 l 176 622 l 11 622 l 11 728 l 176 728 l 176 729 l 214 944 l 315 944 l 315 728 l 525 728 l 525 622 l 315 622 l 315 235 b 424 100 315 132 356 100 "},"ŧ":{"ha":593,"x_min":0,"x_max":0,"o":"m 424 100 b 543 158 476 100 518 124 l 543 38 b 389 -17 507 0 447 -17 b 176 235 243 -17 176 88 l 176 388 l 26 388 l 26 490 l 176 490 l 176 622 l 11 622 l 11 728 l 176 728 l 176 729 l 214 944 l 315 944 l 315 728 l 525 728 l 525 622 l 315 622 l 315 490 l 542 490 l 542 388 l 315 388 l 315 235 b 424 100 315 132 356 100 "},"ť":{"ha":571,"x_min":0,"x_max":0,"o":"m 404 815 b 454 893 442 815 454 853 l 393 893 l 393 1008 l 508 1008 l 508 893 b 404 782 508 818 451 782 l 404 815 m 424 100 b 543 158 476 100 518 124 l 543 38 b 389 -17 507 0 447 -17 b 176 235 243 -17 176 88 l 176 622 l 11 622 l 11 728 l 176 728 l 176 729 l 214 944 l 315 944 l 315 728 l 525 728 l 525 622 l 315 622 l 315 235 b 424 100 315 132 356 100 "},"ţ":{"ha":571,"x_min":0,"x_max":0,"o":"m 424 100 b 543 158 476 100 518 124 l 543 38 b 392 -17 507 0 449 -17 l 344 -89 b 426 -58 365 -71 397 -58 b 529 -156 481 -58 529 -99 b 363 -292 529 -233 456 -292 b 218 -224 293 -292 239 -256 l 289 -181 b 367 -221 308 -208 343 -221 b 440 -160 408 -221 440 -196 b 390 -110 440 -132 421 -110 b 314 -143 367 -110 333 -121 l 235 -143 l 322 -8 b 176 235 222 19 176 113 l 176 622 l 11 622 l 11 728 l 176 728 l 176 729 l 214 944 l 315 944 l 315 728 l 525 728 l 525 622 l 315 622 l 315 235 b 424 100 315 132 356 100 "},"ț":{"ha":571,"x_min":0,"x_max":0,"o":"m 424 100 b 543 158 476 100 518 124 l 543 38 b 389 -17 507 0 447 -17 b 176 235 243 -17 176 88 l 176 622 l 11 622 l 11 728 l 176 728 l 176 729 l 214 944 l 315 944 l 315 728 l 525 728 l 525 622 l 315 622 l 315 235 b 424 100 315 132 356 100 m 308 -56 l 424 -56 l 424 -171 b 319 -283 424 -246 367 -283 l 319 -249 b 369 -171 357 -249 369 -211 l 308 -171 "},"u":{"ha":842,"x_min":0,"x_max":0,"o":"m 742 729 l 742 0 l 603 0 l 603 215 b 340 -17 564 79 474 -17 b 93 300 181 -17 93 83 l 93 729 l 232 729 l 232 361 b 393 108 232 208 260 108 b 603 414 546 108 603 296 l 603 729 "},"ú":{"ha":842,"x_min":0,"x_max":0,"o":"m 457 799 l 349 799 l 535 1028 l 715 1028 m 742 729 l 742 0 l 603 0 l 603 215 b 340 -17 564 79 474 -17 b 93 300 181 -17 93 83 l 93 729 l 232 729 l 232 361 b 393 108 232 208 260 108 b 603 414 546 108 603 296 l 603 729 "},"û":{"ha":842,"x_min":0,"x_max":0,"o":"m 281 799 l 157 799 l 346 1028 l 514 1028 l 703 799 l 578 799 l 429 953 m 742 729 l 742 0 l 603 0 l 603 215 b 340 -17 564 79 474 -17 b 93 300 181 -17 93 83 l 93 729 l 232 729 l 232 361 b 393 108 232 208 260 108 b 603 414 546 108 603 296 l 603 729 "},"ü":{"ha":842,"x_min":0,"x_max":0,"o":"m 253 822 b 167 908 203 822 167 858 b 253 997 167 957 203 997 b 340 908 301 997 340 957 b 253 822 340 858 301 822 m 589 822 b 501 908 539 822 501 858 b 589 997 501 957 539 997 b 676 908 638 997 676 957 b 589 822 676 858 638 822 m 742 729 l 742 0 l 603 0 l 603 215 b 340 -17 564 79 474 -17 b 93 300 181 -17 93 83 l 93 729 l 232 729 l 232 361 b 393 108 232 208 260 108 b 603 414 546 108 603 296 l 603 729 "},"ù":{"ha":842,"x_min":0,"x_max":0,"o":"m 394 799 l 138 1028 l 317 1028 l 503 799 m 742 729 l 742 0 l 603 0 l 603 215 b 340 -17 564 79 474 -17 b 93 300 181 -17 93 83 l 93 729 l 232 729 l 232 361 b 393 108 232 208 260 108 b 603 414 546 108 603 296 l 603 729 "},"ű":{"ha":842,"x_min":0,"x_max":0,"o":"m 290 799 l 182 799 l 368 1028 l 547 1028 m 457 799 l 642 1028 l 822 1028 l 564 799 m 603 729 l 742 729 l 742 0 l 603 0 l 603 215 b 340 -17 564 79 474 -17 b 93 300 181 -17 93 83 l 93 729 l 232 729 l 232 361 b 393 108 232 208 260 108 b 603 414 546 108 603 296 "},"ū":{"ha":842,"x_min":0,"x_max":0,"o":"m 711 799 l 128 799 l 128 886 l 711 886 m 742 729 l 742 0 l 603 0 l 603 215 b 340 -17 564 79 474 -17 b 93 300 181 -17 93 83 l 93 729 l 232 729 l 232 361 b 393 108 232 208 260 108 b 603 414 546 108 603 296 l 603 729 "},"ų":{"ha":840,"x_min":0,"x_max":0,"o":"m 714 -172 b 774 -146 742 -172 760 -164 l 774 -206 b 682 -236 753 -226 718 -236 b 561 -131 606 -236 561 -190 b 636 0 561 -87 596 -29 l 603 0 l 603 215 b 340 -17 564 79 474 -17 b 93 300 181 -17 93 83 l 93 729 l 232 729 l 232 361 b 393 108 232 208 260 108 b 603 414 546 108 603 296 l 603 729 l 742 729 l 742 0 l 718 0 b 665 -111 678 -40 665 -75 b 714 -172 665 -142 682 -172 "},"ů":{"ha":842,"x_min":0,"x_max":0,"o":"m 419 794 b 247 967 325 794 247 872 b 419 1139 247 1061 325 1139 b 592 967 514 1139 592 1061 b 419 794 592 872 514 794 m 419 1064 b 322 967 365 1064 322 1021 b 419 869 322 913 365 869 b 517 967 474 869 517 913 b 419 1064 517 1021 474 1064 m 742 729 l 742 0 l 603 0 l 603 215 b 340 -17 564 79 474 -17 b 93 300 181 -17 93 83 l 93 729 l 232 729 l 232 361 b 393 108 232 208 260 108 b 603 414 546 108 603 296 l 603 729 "},"v":{"ha":776,"x_min":0,"x_max":0,"o":"m 758 729 l 492 0 l 285 0 l 18 729 l 158 729 l 389 97 l 618 729 "},"w":{"ha":1163,"x_min":0,"x_max":0,"o":"m 1146 729 l 924 0 l 726 0 l 583 543 l 432 0 l 236 0 l 25 729 l 169 729 l 342 103 l 507 729 l 664 729 l 819 103 l 1001 729 "},"ẃ":{"ha":1163,"x_min":0,"x_max":0,"o":"m 611 799 l 503 799 l 689 1028 l 868 1028 m 1146 729 l 924 0 l 726 0 l 583 543 l 432 0 l 236 0 l 25 729 l 169 729 l 342 103 l 507 729 l 664 729 l 819 103 l 1001 729 "},"ŵ":{"ha":1163,"x_min":0,"x_max":0,"o":"m 447 799 l 324 799 l 513 1028 l 681 1028 l 869 799 l 746 799 l 597 953 m 1146 729 l 924 0 l 726 0 l 583 543 l 432 0 l 236 0 l 25 729 l 169 729 l 342 103 l 507 729 l 664 729 l 819 103 l 1001 729 "},"ẅ":{"ha":1163,"x_min":0,"x_max":0,"o":"m 418 822 b 332 908 368 822 332 858 b 418 997 332 957 368 997 b 506 908 467 997 506 957 b 418 822 506 858 467 822 m 754 822 b 667 908 704 822 667 858 b 754 997 667 957 704 997 b 842 908 803 997 842 957 b 754 822 842 858 803 822 m 1146 729 l 924 0 l 726 0 l 583 543 l 432 0 l 236 0 l 25 729 l 169 729 l 342 103 l 507 729 l 664 729 l 819 103 l 1001 729 "},"ẁ":{"ha":1163,"x_min":0,"x_max":0,"o":"m 561 799 l 304 1028 l 483 1028 l 669 799 m 1146 729 l 924 0 l 726 0 l 583 543 l 432 0 l 236 0 l 25 729 l 169 729 l 342 103 l 507 729 l 664 729 l 819 103 l 1001 729 "},"x":{"ha":735,"x_min":0,"x_max":0,"o":"m 564 0 l 367 263 l 169 0 l 7 0 l 286 371 l 17 729 l 179 729 l 367 481 l 554 729 l 717 729 l 449 372 l 729 0 "},"y":{"ha":732,"x_min":0,"x_max":0,"o":"m 717 729 l 436 -12 b 197 -264 371 -175 322 -264 b 60 -222 150 -264 88 -246 l 60 -94 b 182 -139 88 -115 136 -139 b 299 0 244 -139 268 -71 l 301 7 l 13 729 l 156 729 l 369 183 l 579 729 "},"ý":{"ha":732,"x_min":0,"x_max":0,"o":"m 390 799 l 282 799 l 468 1028 l 647 1028 m 717 729 l 436 -12 b 197 -264 371 -175 322 -264 b 60 -222 150 -264 88 -246 l 60 -94 b 182 -139 88 -115 136 -139 b 299 0 244 -139 268 -71 l 301 7 l 13 729 l 156 729 l 369 183 l 579 729 "},"ŷ":{"ha":732,"x_min":0,"x_max":0,"o":"m 203 799 l 79 799 l 268 1028 l 436 1028 l 625 799 l 501 799 l 353 953 m 717 729 l 436 -12 b 197 -264 371 -175 322 -264 b 60 -222 150 -264 88 -246 l 60 -94 b 182 -139 88 -115 136 -139 b 299 0 244 -139 268 -71 l 301 7 l 13 729 l 156 729 l 369 183 l 579 729 "},"ÿ":{"ha":732,"x_min":0,"x_max":0,"o":"m 197 822 b 111 908 147 822 111 858 b 197 997 111 957 147 997 b 285 908 246 997 285 957 b 197 822 285 858 246 822 m 533 822 b 446 908 483 822 446 858 b 533 997 446 957 483 997 b 621 908 582 997 621 957 b 533 822 621 858 582 822 m 717 729 l 436 -12 b 197 -264 371 -175 322 -264 b 60 -222 150 -264 88 -246 l 60 -94 b 182 -139 88 -115 136 -139 b 299 0 244 -139 268 -71 l 301 7 l 13 729 l 156 729 l 369 183 l 579 729 "},"ỳ":{"ha":732,"x_min":0,"x_max":0,"o":"m 340 799 l 83 1028 l 263 1028 l 449 799 m 717 729 l 436 -12 b 197 -264 371 -175 322 -264 b 60 -222 150 -264 88 -246 l 60 -94 b 182 -139 88 -115 136 -139 b 299 0 244 -139 268 -71 l 301 7 l 13 729 l 156 729 l 369 183 l 579 729 "},"z":{"ha":736,"x_min":0,"x_max":0,"o":"m 683 729 l 683 585 l 193 118 l 683 118 l 683 -1 l 53 -1 l 53 144 l 544 610 l 53 610 l 53 729 "},"ź":{"ha":736,"x_min":0,"x_max":0,"o":"m 390 799 l 282 799 l 468 1028 l 649 1028 m 683 729 l 683 585 l 193 118 l 683 118 l 683 -1 l 53 -1 l 53 144 l 544 610 l 53 610 l 53 729 "},"ž":{"ha":736,"x_min":0,"x_max":0,"o":"m 93 1028 l 217 1028 l 367 874 l 515 1028 l 639 1028 l 450 799 l 282 799 m 683 729 l 683 585 l 193 118 l 683 118 l 683 -1 l 53 -1 l 53 144 l 544 610 l 53 610 l 53 729 "},"ż":{"ha":736,"x_min":0,"x_max":0,"o":"m 369 817 b 278 910 318 817 278 858 b 369 1001 278 960 318 1001 b 461 910 419 1001 461 960 b 369 817 461 858 419 817 m 683 729 l 683 585 l 193 118 l 683 118 l 683 -1 l 53 -1 l 53 144 l 544 610 l 53 610 l 53 729 "},"ﬁ":{"ha":897,"x_min":0,"x_max":0,"o":"m 728 818 b 635 910 674 818 635 857 b 728 1003 635 963 674 1003 b 821 910 781 1003 821 963 b 728 818 821 857 781 818 m 388 989 b 547 924 453 989 518 963 l 547 826 b 428 879 518 857 476 879 b 321 736 364 879 321 850 l 321 729 l 547 729 l 547 622 l 321 622 l 321 0 l 182 0 l 182 622 l 13 622 l 13 729 l 182 729 l 182 736 b 388 989 182 897 250 989 m 658 729 l 797 729 l 797 0 l 658 0 "},"ﬂ":{"ha":897,"x_min":0,"x_max":0,"o":"m 388 989 b 547 924 453 989 518 963 l 547 826 b 428 879 518 857 476 879 b 321 736 364 879 321 850 l 321 729 l 547 729 l 547 622 l 321 622 l 321 0 l 182 0 l 182 622 l 13 622 l 13 729 l 182 729 l 182 736 b 388 989 182 897 250 989 m 797 972 l 797 0 l 658 0 l 658 972 "},"ª":{"ha":576,"x_min":0,"x_max":0,"o":"m 360 826 l 360 839 b 276 903 360 857 342 903 b 186 806 214 903 186 861 l 76 806 b 275 983 78 921 165 983 b 472 818 392 983 472 922 l 472 556 l 360 556 l 360 679 b 199 546 335 601 285 546 b 71 656 113 546 71 599 b 236 796 71 739 153 776 m 243 622 b 360 771 317 622 360 714 l 256 732 b 186 668 210 717 186 693 b 243 622 186 647 204 622 m 514 483 l 514 403 l 47 403 l 47 483 "},"º":{"ha":524,"x_min":0,"x_max":0,"o":"m 42 765 b 263 983 42 893 132 983 b 482 767 392 983 482 893 b 263 546 482 638 392 546 b 42 765 132 546 42 639 m 369 767 b 263 901 369 843 325 901 b 154 767 199 901 154 843 b 263 628 154 688 199 628 b 369 767 325 628 369 688 m 496 483 l 496 403 l 29 403 l 29 483 "},"Δ":{"ha":882,"x_min":0,"x_max":0,"o":"m 854 86 l 854 0 l 28 0 l 28 88 l 379 972 l 504 972 m 700 125 l 442 807 l 183 125 "},"Ω":{"ha":1118,"x_min":0,"x_max":0,"o":"m 1056 119 l 1056 0 l 646 0 l 646 119 b 886 488 790 158 886 307 b 558 864 886 700 757 864 b 229 486 360 864 229 703 b 469 119 229 307 325 158 l 469 0 l 64 0 l 64 119 l 272 119 b 88 499 160 197 88 326 b 558 988 88 779 278 988 b 1028 499 835 988 1028 779 b 843 119 1028 326 956 197 "},"μ":{"ha":901,"x_min":0,"x_max":0,"o":"m 781 171 b 843 106 781 126 806 106 l 843 0 b 642 133 728 0 642 24 l 642 178 b 396 -17 607 60 531 -17 b 239 46 329 -17 278 7 l 239 -254 l 100 -254 l 100 729 l 240 729 l 240 385 b 415 108 240 308 239 108 b 642 414 582 108 642 272 l 642 729 l 781 729 l 781 171 "},"π":{"ha":915,"x_min":0,"x_max":0,"o":"m 722 604 l 722 203 b 824 125 722 149 758 106 l 824 10 b 583 179 721 -26 583 26 l 583 604 l 307 604 l 307 0 l 168 0 l 168 508 b 228 604 168 551 182 604 l 18 604 l 18 729 l 885 729 l 885 604 "},"⁄":{"ha":179,"x_min":0,"x_max":0,"o":"m 442 972 l -200 0 l -267 0 l 375 972 "},"½":{"ha":1210,"x_min":0,"x_max":0,"o":"m 194 883 b 40 728 181 801 142 731 l 40 825 b 164 972 101 828 163 872 l 290 972 l 290 417 l 194 417 m 896 972 l 254 0 l 188 0 l 829 972 m 1160 88 l 1160 0 l 719 0 l 719 35 b 956 297 724 222 839 254 b 1053 399 1004 315 1053 338 b 947 481 1053 450 1000 481 b 818 340 876 481 818 444 l 718 340 b 942 563 718 457 790 563 b 1151 392 1075 563 1151 486 b 960 215 1151 286 1071 256 b 824 88 888 189 838 178 "},"¼":{"ha":1129,"x_min":0,"x_max":0,"o":"m 193 881 b 39 728 179 799 139 731 l 39 825 b 163 972 100 828 161 872 l 290 972 l 290 417 l 193 417 m 894 972 l 253 0 l 186 0 l 828 972 m 1083 154 l 1022 154 l 1022 0 l 924 0 l 924 154 l 599 154 l 599 239 b 868 556 657 282 785 406 l 1022 556 l 1022 239 l 1083 239 m 924 239 l 924 489 b 718 239 858 375 768 281 "},"¾":{"ha":1264,"x_min":0,"x_max":0,"o":"m 492 576 b 271 410 492 476 401 410 b 46 610 132 410 46 488 l 143 610 b 271 492 143 539 189 492 b 394 582 344 492 394 526 b 233 675 394 640 333 675 l 233 742 b 372 815 319 742 372 767 b 261 899 372 865 324 899 b 147 783 192 899 147 854 l 51 783 b 264 979 51 897 135 979 b 467 818 383 979 467 911 b 365 708 467 761 432 725 b 492 576 444 689 492 644 m 1010 972 l 368 0 l 301 0 l 943 972 m 1222 154 l 1161 154 l 1161 0 l 1063 0 l 1063 154 l 739 154 l 739 239 b 1007 556 796 282 925 406 l 1161 556 l 1161 239 l 1222 239 m 1063 239 l 1063 488 b 858 239 997 375 908 281 "},"⅛":{"ha":1178,"x_min":0,"x_max":0,"o":"m 194 883 b 40 728 181 801 142 731 l 40 825 b 164 972 101 828 163 872 l 290 972 l 290 417 l 194 417 m 886 972 l 244 0 l 176 0 l 818 972 m 1035 294 b 1131 158 1094 267 1131 217 b 921 -7 1131 63 1044 -7 b 704 158 793 -7 704 63 b 803 294 704 217 742 267 b 726 411 756 321 726 363 b 919 563 726 499 807 563 b 1108 411 1031 563 1108 499 b 1035 294 1108 361 1081 319 m 921 482 b 819 406 861 482 819 451 b 921 318 819 353 861 318 b 1015 406 976 318 1015 353 b 921 482 1015 451 976 482 m 919 76 b 1036 165 989 76 1036 111 b 919 264 1036 225 989 264 b 799 165 849 264 799 225 b 919 76 799 111 849 76 "},"⅜":{"ha":1296,"x_min":0,"x_max":0,"o":"m 490 576 b 271 410 490 476 400 410 b 44 610 132 410 44 488 l 142 610 b 269 492 142 539 189 492 b 393 582 343 492 393 526 b 233 675 393 640 333 675 l 233 742 b 371 815 318 742 371 767 b 260 899 371 865 322 899 b 146 783 190 899 146 854 l 50 783 b 263 979 50 897 133 979 b 465 818 382 979 465 911 b 365 708 465 761 432 725 b 490 576 443 689 490 644 m 1008 972 l 367 0 l 300 0 l 942 972 m 1157 294 b 1253 158 1217 267 1253 217 b 1043 -7 1253 63 1167 -7 b 826 158 915 -7 826 63 b 925 294 826 217 864 267 b 849 411 878 321 849 363 b 1042 563 849 499 929 563 b 1231 411 1153 563 1231 499 b 1157 294 1231 361 1203 319 m 1043 482 b 942 406 983 482 942 451 b 1043 318 942 353 983 318 b 1138 406 1099 318 1138 353 b 1043 482 1138 451 1099 482 m 1042 76 b 1158 165 1111 76 1158 111 b 1042 264 1158 225 1111 264 b 921 165 971 264 921 225 b 1042 76 921 111 971 76 "},"⅝":{"ha":1289,"x_min":0,"x_max":0,"o":"m 493 625 b 272 410 493 496 401 410 b 42 614 147 410 42 492 l 142 614 b 274 492 142 536 194 492 b 393 626 349 492 393 539 b 283 757 393 715 350 757 b 147 689 229 757 176 731 l 46 689 l 111 972 l 468 972 l 468 888 l 193 888 l 158 735 b 304 810 178 772 232 810 b 493 625 415 810 493 739 m 1003 972 l 361 0 l 294 0 l 936 972 m 1150 294 b 1246 158 1210 267 1246 217 b 1035 -7 1246 63 1160 -7 b 819 158 908 -7 819 63 b 917 294 819 217 857 267 b 842 411 869 319 842 363 b 1035 563 842 499 921 563 b 1222 411 1146 563 1222 499 b 1150 294 1222 361 1196 319 m 933 406 b 1035 318 933 353 976 318 b 1131 406 1092 318 1131 353 b 1035 482 1131 451 1092 482 b 933 406 976 482 933 451 m 1035 76 b 1151 165 1103 76 1151 111 b 1035 264 1151 225 1103 264 b 913 165 964 264 913 225 b 1035 76 913 111 964 76 "},"⅞":{"ha":1088,"x_min":0,"x_max":0,"o":"m 78 417 b 364 883 147 572 229 728 l 49 883 l 49 972 l 472 972 l 472 883 b 190 417 338 728 256 572 m 801 972 l 160 0 l 93 0 l 735 972 m 950 294 b 1046 158 1010 267 1046 217 b 835 -7 1046 63 960 -7 b 618 158 707 -7 618 63 b 717 294 618 217 656 267 b 640 411 669 321 640 363 b 833 563 640 499 721 563 b 1022 411 944 563 1022 499 b 950 294 1022 361 994 319 m 835 482 b 733 406 775 482 733 451 b 835 318 733 353 775 318 b 929 406 890 318 929 353 b 835 482 929 451 890 482 m 833 76 b 950 165 903 76 950 111 b 833 264 950 225 903 264 b 713 165 763 264 713 225 b 833 76 713 111 763 76 "},".":{"ha":324,"x_min":0,"x_max":0,"o":"m 65 82 b 163 179 65 136 108 179 b 260 82 215 179 260 136 b 163 -15 260 28 215 -15 b 65 82 108 -15 65 28 "},",":{"ha":329,"x_min":0,"x_max":0,"o":"m 178 -19 b 67 78 110 -19 67 26 b 163 172 67 132 107 172 b 263 72 217 172 263 132 b 232 -19 263 36 246 4 l 126 -199 l 0 -199 l 178 -19 "},":":{"ha":365,"x_min":0,"x_max":0,"o":"m 85 632 b 182 729 85 686 129 729 b 281 632 236 729 281 686 b 182 535 281 579 236 535 b 85 632 129 535 85 579 m 85 81 b 182 178 85 135 129 178 b 281 81 236 178 281 135 b 182 -17 281 28 236 -17 b 85 81 129 -17 85 28 "},";":{"ha":385,"x_min":0,"x_max":0,"o":"m 94 632 b 192 729 94 686 139 729 b 290 632 246 729 290 686 b 192 535 290 579 246 535 b 94 632 139 535 94 579 m 211 -19 b 100 78 143 -19 100 26 b 197 172 100 132 142 172 b 296 72 251 172 296 132 b 265 -19 296 36 281 4 l 160 -199 l 33 -199 l 211 -19 "},"…":{"ha":878,"x_min":0,"x_max":0,"o":"m 65 82 b 163 179 65 136 108 179 b 260 82 215 179 260 136 b 163 -15 260 28 215 -15 b 65 82 108 -15 65 28 m 339 82 b 438 179 339 136 383 179 b 535 82 490 179 535 136 b 438 -15 535 28 490 -15 b 339 82 383 -15 339 28 m 618 82 b 715 179 618 136 661 179 b 813 82 769 179 813 136 b 715 -15 813 28 769 -15 b 618 82 661 -15 618 28 "},"!":{"ha":350,"x_min":0,"x_max":0,"o":"m 249 972 l 228 226 l 122 226 l 103 972 m 85 69 b 175 160 85 119 124 160 b 265 69 225 160 265 119 b 175 -22 265 18 225 -22 b 85 69 124 -22 85 18 "},"¡":{"ha":336,"x_min":0,"x_max":0,"o":"m 168 717 b 258 625 218 717 258 676 b 168 535 258 575 218 535 b 78 625 117 535 78 575 b 168 717 78 676 117 717 m 115 468 l 221 468 l 242 -278 l 96 -278 "},"?":{"ha":765,"x_min":0,"x_max":0,"o":"m 582 700 b 390 871 582 811 493 871 b 182 639 254 871 182 786 l 40 639 b 390 989 40 847 178 989 b 724 700 576 989 724 871 b 396 251 724 436 396 499 l 258 251 b 582 700 260 567 582 519 m 233 76 b 328 169 233 128 276 169 b 422 76 379 169 422 128 b 328 -19 422 24 379 -19 b 233 76 276 -19 233 24 "},"¿":{"ha":757,"x_min":0,"x_max":0,"o":"m 528 632 b 433 539 528 581 485 539 b 339 632 382 539 339 581 b 433 728 339 685 382 728 b 528 632 485 728 528 685 m 179 8 b 371 -162 179 -103 268 -162 b 579 69 507 -162 579 -78 l 721 69 b 371 -281 721 -139 583 -281 b 38 8 185 -281 38 -162 b 365 457 38 272 365 210 l 503 457 b 179 8 501 142 179 189 "},"·":{"ha":350,"x_min":0,"x_max":0,"o":"m 78 369 b 175 465 78 422 121 465 b 272 369 228 465 272 422 b 175 271 272 315 228 271 b 78 369 121 271 78 315 "},"•":{"ha":539,"x_min":0,"x_max":0,"o":"m 100 347 b 269 517 100 440 176 517 b 439 347 363 517 439 440 b 269 178 439 253 363 178 b 100 347 176 178 100 253 "},"*":{"ha":613,"x_min":0,"x_max":0,"o":"m 353 719 l 501 563 l 413 499 l 307 683 l 200 499 l 113 561 l 261 719 l 49 761 l 81 865 l 278 775 l 251 989 l 360 989 l 335 775 l 531 865 l 565 761 "},"#":{"ha":1582,"x_min":0,"x_max":0,"o":"m 1232 638 l 1090 343 l 1375 343 l 1313 218 l 1031 218 l 926 0 l 783 0 l 888 218 l 458 218 l 354 0 l 211 0 l 315 218 l 36 218 l 99 343 l 376 343 l 517 638 l 210 638 l 272 763 l 578 763 l 678 972 l 819 972 l 719 763 l 1150 763 l 1250 972 l 1392 972 l 1292 763 l 1549 763 l 1486 638 m 1089 638 l 660 638 l 518 343 l 949 343 "},"/":{"ha":676,"x_min":0,"x_max":0,"o":"m 644 972 l 179 0 l 29 0 l 496 972 "},"\\":{"ha":672,"x_min":0,"x_max":0,"o":"m 176 972 l 642 0 l 497 0 l 32 972 "},"(":{"ha":521,"x_min":0,"x_max":0,"o":"m 54 424 b 506 1107 54 760 256 1049 l 506 1018 b 168 424 326 960 168 681 b 506 -186 168 163 326 -128 l 506 -275 b 54 424 256 -217 54 88 "},")":{"ha":521,"x_min":0,"x_max":0,"o":"m 15 -192 b 353 418 194 -133 353 157 b 15 1013 353 675 194 954 l 15 1101 b 468 418 267 1043 468 754 b 15 -281 468 82 267 -222 "},"{":{"ha":499,"x_min":0,"x_max":0,"o":"m 272 628 b 171 358 272 472 222 396 b 272 88 222 321 272 243 b 467 -158 272 -76 363 -158 l 467 -278 b 168 71 269 -278 168 -176 b 14 290 168 211 106 290 l 14 426 b 168 644 106 426 168 504 b 467 993 168 892 269 993 l 467 874 b 272 628 363 874 272 792 "},"}":{"ha":499,"x_min":0,"x_max":0,"o":"m 331 644 b 485 426 331 504 393 426 l 485 290 b 331 71 393 290 331 211 b 32 -278 331 -176 229 -278 l 32 -158 b 226 88 135 -158 226 -76 b 328 358 226 243 276 321 b 226 628 276 396 226 472 b 32 874 226 792 135 874 l 32 993 b 331 644 229 993 331 892 "},"[":{"ha":536,"x_min":0,"x_max":0,"o":"m 236 942 l 236 -100 l 508 -100 l 508 -204 l 111 -204 l 111 1046 l 508 1046 l 508 942 "},"]":{"ha":536,"x_min":0,"x_max":0,"o":"m 425 -203 l 28 -203 l 28 -99 l 300 -99 l 300 943 l 28 943 l 28 1047 l 425 1047 "},"-":{"ha":589,"x_min":0,"x_max":0,"o":"m 503 415 l 503 314 l 86 314 l 86 415 "},"­":{"ha":589,"x_min":0,"x_max":0,"o":"m 503 415 l 503 314 l 86 314 l 86 415 "},"–":{"ha":728,"x_min":0,"x_max":0,"o":"m 642 421 l 642 308 l 86 308 l 86 421 "},"—":{"ha":1144,"x_min":0,"x_max":0,"o":"m 1058 421 l 1058 308 l 86 308 l 86 421 "},"_":{"ha":957,"x_min":0,"x_max":0,"o":"m 894 0 l 894 -54 l 61 -54 l 61 0 "},"‚":{"ha":329,"x_min":0,"x_max":0,"o":"m 178 -19 b 67 78 110 -19 67 26 b 163 172 67 132 107 172 b 263 72 217 172 263 132 b 232 -19 263 36 246 4 l 126 -199 l 0 -199 l 178 -19 "},"„":{"ha":551,"x_min":0,"x_max":0,"o":"m 176 -17 b 67 81 108 -17 67 29 b 163 176 67 135 107 176 b 261 75 217 176 261 135 b 231 -17 261 39 246 8 l 126 -196 l 0 -196 l 176 -17 m 401 -17 b 290 81 333 -17 290 29 b 386 176 290 135 331 176 b 486 75 440 176 486 135 b 456 -17 486 39 469 8 l 350 -196 l 224 -196 l 401 -17 "},"“":{"ha":556,"x_min":0,"x_max":0,"o":"m 133 924 b 244 826 201 924 244 878 b 147 731 244 772 204 731 b 49 832 94 731 49 772 b 79 924 49 868 64 899 l 185 1103 l 311 1103 l 133 924 m 357 924 b 468 826 425 924 468 878 b 372 731 468 772 428 731 b 272 832 318 731 272 772 b 303 924 272 868 289 899 l 408 1103 l 535 1103 l 357 924 "},"”":{"ha":569,"x_min":0,"x_max":0,"o":"m 221 914 b 110 1010 153 914 110 958 b 207 1106 110 1064 150 1106 b 306 1006 260 1106 306 1065 b 275 914 306 969 290 938 l 169 733 l 43 733 l 221 914 m 444 914 b 335 1010 378 914 335 958 b 431 1106 335 1064 375 1106 b 529 1006 485 1106 529 1065 b 499 914 529 969 514 938 l 394 733 l 268 733 l 444 914 "},"‘":{"ha":329,"x_min":0,"x_max":0,"o":"m 133 925 b 244 828 201 925 244 879 b 147 732 244 774 204 732 b 49 833 94 732 49 774 b 79 925 49 869 64 900 l 185 1104 l 311 1104 l 133 925 "},"’":{"ha":343,"x_min":0,"x_max":0,"o":"m 219 915 b 108 1011 151 915 108 960 b 204 1107 108 1065 149 1107 b 304 1007 258 1107 304 1067 b 274 915 304 971 288 939 l 168 735 l 42 735 l 219 915 "},"«":{"ha":760,"x_min":0,"x_max":0,"o":"m 113 390 l 410 90 l 410 -50 l 44 318 l 44 471 l 410 831 l 410 685 m 694 685 l 397 390 l 694 90 l 694 -50 l 329 318 l 329 471 l 694 831 "},"»":{"ha":761,"x_min":0,"x_max":0,"o":"m 65 -43 l 65 103 l 363 397 l 65 697 l 65 838 l 431 469 l 431 317 m 715 469 l 715 317 l 350 -43 l 350 103 l 647 397 l 350 697 l 350 838 "},"‹":{"ha":475,"x_min":0,"x_max":0,"o":"m 410 686 l 113 392 l 410 92 l 410 -49 l 44 319 l 44 472 l 410 832 "},"›":{"ha":475,"x_min":0,"x_max":0,"o":"m 431 465 l 431 313 l 65 -47 l 65 99 l 363 393 l 65 693 l 65 833 "},"\"":{"ha":514,"x_min":0,"x_max":0,"o":"m 196 1042 l 179 694 l 89 694 l 72 1042 m 442 1042 l 424 694 l 333 694 l 317 1042 "},"'":{"ha":268,"x_min":0,"x_max":0,"o":"m 196 1042 l 179 694 l 89 694 l 72 1042 "}," ":{"ha":328,"x_min":0,"x_max":0,"o":""},"¢":{"ha":817,"x_min":0,"x_max":0,"o":"m 463 215 b 628 385 558 229 626 294 l 767 385 b 463 104 765 233 640 121 l 463 0 l 399 0 l 399 103 b 58 483 201 114 58 275 b 399 865 58 696 201 856 l 399 972 l 463 972 l 463 863 b 767 569 638 846 761 729 l 628 569 b 463 753 624 665 556 736 l 463 215 m 197 483 b 399 214 197 343 283 229 l 399 754 b 197 483 282 740 197 629 "},"¤":{"ha":808,"x_min":0,"x_max":0,"o":"m 682 422 b 633 265 682 364 664 310 l 746 151 l 675 81 l 561 194 b 404 144 517 163 463 144 b 247 193 346 144 292 163 l 135 81 l 63 151 l 175 264 b 126 422 144 310 126 364 b 175 581 126 481 144 535 l 63 693 l 135 764 l 247 651 b 404 700 292 682 346 700 b 561 650 463 700 517 682 l 675 764 l 746 693 l 633 579 b 682 422 664 535 682 481 m 226 422 b 404 244 226 325 306 244 b 581 422 501 244 581 325 b 404 600 581 521 501 600 b 226 422 306 600 226 521 "},"$":{"ha":904,"x_min":0,"x_max":0,"o":"m 853 267 b 476 -17 853 101 706 -14 l 476 -114 l 401 -114 l 401 -12 b 49 381 183 11 49 154 l 194 381 b 401 108 194 208 292 131 l 401 433 b 74 700 247 468 74 522 b 401 988 74 840 182 975 l 401 1081 l 476 1081 l 476 988 b 818 625 719 971 818 801 l 672 625 b 476 869 672 772 611 857 l 476 560 b 853 267 649 522 853 464 m 219 713 b 401 578 219 635 288 606 l 401 868 b 219 713 283 856 219 786 m 476 101 b 706 260 593 103 706 156 b 476 418 706 353 625 383 l 476 101 "},"ƒ":{"ha":874,"x_min":0,"x_max":0,"o":"m 717 872 b 572 736 651 872 603 840 l 529 572 l 735 572 l 735 467 l 501 467 l 464 321 l 444 250 b 186 -4 403 114 340 -4 b 40 44 129 -4 75 13 l 40 160 b 158 113 69 132 107 113 b 303 250 224 113 267 144 l 325 321 l 363 467 l 149 467 l 149 572 l 390 572 l 433 736 b 689 989 472 872 535 989 b 835 942 746 989 800 972 l 835 826 b 717 872 806 854 768 872 "},"£":{"ha":856,"x_min":0,"x_max":0,"o":"m 826 131 b 604 -17 750 8 675 -17 b 304 79 478 -17 429 79 b 129 -14 226 79 175 43 l 69 44 b 226 353 179 151 226 267 b 214 433 226 383 221 410 l 39 433 l 67 511 l 178 511 b 129 681 153 558 129 607 b 471 986 129 858 269 986 b 774 801 643 986 751 886 l 654 732 b 472 874 640 797 589 874 b 257 671 353 874 257 794 b 303 511 257 610 281 563 l 710 511 l 682 433 l 335 433 b 351 328 344 403 351 368 b 308 179 351 275 336 224 l 314 179 b 557 101 419 179 468 101 b 713 210 622 101 671 142 "},"¥":{"ha":1046,"x_min":0,"x_max":0,"o":"m 657 504 l 946 504 l 946 422 l 599 422 l 599 363 l 946 363 l 946 281 l 599 281 l 599 0 l 447 0 l 447 281 l 104 281 l 104 363 l 447 363 l 447 422 l 104 422 l 104 504 l 388 504 l 39 972 l 221 972 l 524 546 l 822 972 l 1004 972 "},"≡":{"ha":989,"x_min":0,"x_max":0,"o":"m 901 757 l 901 651 l 88 651 l 88 757 m 901 543 l 901 436 l 88 436 l 88 543 m 901 326 l 901 219 l 88 219 l 88 326 "},"+":{"ha":794,"x_min":0,"x_max":0,"o":"m 753 433 l 457 433 l 457 132 l 340 132 l 340 433 l 43 433 l 43 540 l 340 540 l 340 842 l 457 842 l 457 540 l 753 540 "},"−":{"ha":997,"x_min":0,"x_max":0,"o":"m 906 539 l 906 433 l 92 433 l 92 539 "},"×":{"ha":825,"x_min":0,"x_max":0,"o":"m 499 486 l 764 221 l 682 139 l 417 404 l 149 135 l 65 218 l 335 486 l 65 756 l 149 838 l 417 568 l 682 833 l 764 751 "},"÷":{"ha":944,"x_min":0,"x_max":0,"o":"m 374 760 b 471 857 374 814 417 857 b 568 760 525 857 568 814 b 471 663 568 706 525 663 b 374 760 417 663 374 706 m 879 542 l 879 435 l 65 435 l 65 542 m 374 208 b 471 306 374 263 417 306 b 568 208 525 306 568 263 b 471 111 568 154 525 111 b 374 208 417 111 374 154 "},"=":{"ha":997,"x_min":0,"x_max":0,"o":"m 906 729 l 906 624 l 92 624 l 92 729 m 906 304 l 906 199 l 92 199 l 92 304 "},"≠":{"ha":1013,"x_min":0,"x_max":0,"o":"m 682 624 l 433 304 l 906 304 l 906 199 l 351 199 l 268 92 l 140 92 l 224 199 l 92 199 l 92 304 l 306 304 l 554 624 l 92 624 l 92 729 l 636 729 l 744 869 l 872 869 l 764 729 l 906 729 l 906 624 "},">":{"ha":724,"x_min":0,"x_max":0,"o":"m 667 567 l 667 410 l 64 143 l 64 264 l 569 488 l 64 711 l 64 833 "},"<":{"ha":724,"x_min":0,"x_max":0,"o":"m 660 711 l 154 488 l 660 264 l 660 143 l 57 410 l 57 567 l 660 833 "},"≥":{"ha":764,"x_min":0,"x_max":0,"o":"m 83 256 l 83 376 l 590 600 l 83 822 l 83 944 l 686 678 l 686 521 m 689 157 l 689 51 l 88 51 l 88 157 "},"≤":{"ha":764,"x_min":0,"x_max":0,"o":"m 681 822 l 174 600 l 681 376 l 681 256 l 78 521 l 78 678 l 681 944 m 74 157 l 676 157 l 676 51 l 74 51 "},"±":{"ha":856,"x_min":0,"x_max":0,"o":"m 775 632 l 775 525 l 488 525 l 488 315 l 368 315 l 368 525 l 81 525 l 81 632 l 368 632 l 368 846 l 488 846 l 488 632 m 81 232 l 775 232 l 775 125 l 81 125 "},"≈":{"ha":742,"x_min":0,"x_max":0,"o":"m 249 593 b 165 515 203 593 171 556 l 90 515 b 257 688 90 631 178 688 b 497 594 351 688 432 594 b 578 671 547 594 574 633 l 653 671 b 489 499 653 547 557 499 b 249 593 404 499 324 593 m 249 353 b 165 275 203 353 171 315 l 90 275 b 257 449 90 390 178 449 b 497 354 351 449 432 354 b 578 432 547 354 574 394 l 653 432 b 489 258 653 308 557 258 b 249 353 404 258 324 353 "},"~":{"ha":735,"x_min":0,"x_max":0,"o":"m 246 418 b 163 342 200 418 168 382 l 88 342 b 254 514 88 457 175 514 b 494 419 349 514 429 419 b 575 497 544 419 571 460 l 650 497 b 486 325 650 374 554 325 b 246 418 401 325 321 418 "},"¬":{"ha":786,"x_min":0,"x_max":0,"o":"m 689 486 l 689 99 l 550 99 l 550 361 l 78 361 l 78 486 "},"^":{"ha":776,"x_min":0,"x_max":0,"o":"m 618 243 l 389 875 l 158 243 l 18 243 l 285 972 l 492 972 l 758 243 "},"∞":{"ha":1169,"x_min":0,"x_max":0,"o":"m 844 746 b 1107 486 992 746 1107 639 b 844 226 1107 333 992 226 b 585 382 725 226 646 303 b 325 226 525 303 446 226 b 63 486 178 226 63 333 b 325 746 63 639 178 746 b 585 590 446 746 525 669 b 844 746 646 669 725 746 m 338 344 b 513 485 418 344 481 435 b 511 486 511 485 511 486 l 513 488 b 338 628 481 536 418 628 b 196 486 256 628 196 561 b 338 344 196 411 256 344 m 832 344 b 975 486 914 344 975 411 b 832 628 975 561 914 628 b 657 488 751 628 689 536 l 658 486 b 657 485 658 486 658 485 b 832 344 689 435 751 344 "},"∫":{"ha":771,"x_min":0,"x_max":0,"o":"m 629 989 b 775 942 686 989 740 972 l 775 826 b 657 872 746 854 708 872 b 511 736 592 872 531 840 l 419 146 l 407 74 b 142 -179 381 -62 296 -179 b -4 -132 85 -179 31 -164 l -4 -17 b 114 -64 25 -44 63 -64 b 265 74 179 -64 233 -32 l 281 146 l 372 736 b 629 989 397 872 468 989 "},"∏":{"ha":954,"x_min":0,"x_max":0,"o":"m 746 847 l 746 203 b 847 125 746 149 781 106 l 847 10 b 607 179 743 -26 607 26 l 607 847 l 329 847 l 329 0 l 190 0 l 190 751 b 251 847 190 794 204 847 l 40 847 l 40 972 l 907 972 l 907 847 "},"∑":{"ha":747,"x_min":0,"x_max":0,"o":"m 692 847 l 235 847 l 496 486 l 235 125 l 692 125 l 692 0 l 51 0 l 51 88 l 350 486 l 51 885 l 51 972 l 692 972 "},"√":{"ha":1138,"x_min":0,"x_max":0,"o":"m 1146 847 l 756 847 l 407 -156 l 188 -156 l 8 457 l 149 457 l 300 -60 l 658 972 l 1146 972 "},"µ":{"ha":901,"x_min":0,"x_max":0,"o":"m 781 171 b 843 106 781 126 806 106 l 843 0 b 642 133 728 0 642 24 l 642 178 b 396 -17 607 60 531 -17 b 239 46 329 -17 278 7 l 239 -254 l 100 -254 l 100 729 l 240 729 l 240 385 b 415 108 240 308 239 108 b 642 414 582 108 642 272 l 642 729 l 781 729 l 781 171 "},"∂":{"ha":785,"x_min":0,"x_max":0,"o":"m 50 361 b 361 746 50 568 169 746 b 576 604 517 746 564 643 b 124 994 556 751 393 989 l 124 1110 b 725 407 536 1106 725 706 b 374 -17 725 151 599 -17 b 50 361 172 -17 50 153 m 593 368 b 381 646 593 497 544 646 b 189 368 257 646 189 506 b 388 83 189 225 258 83 b 593 368 522 83 593 225 "},"%":{"ha":1107,"x_min":0,"x_max":0,"o":"m 65 735 b 299 990 65 876 164 990 b 531 735 435 990 531 875 b 299 476 531 593 435 476 b 65 735 164 476 65 592 m 1044 972 l 210 0 l 64 0 l 900 972 m 424 735 b 299 890 424 818 374 890 b 174 735 225 890 174 818 b 299 578 174 649 224 578 b 424 735 372 578 424 650 m 585 240 b 818 497 585 382 683 497 b 1050 240 954 497 1050 381 b 818 -17 1050 99 954 -17 b 585 240 683 -17 585 97 m 943 240 b 818 399 943 325 893 399 b 693 240 744 399 693 325 b 818 83 693 154 743 83 b 943 240 892 83 943 156 "},"‰":{"ha":1611,"x_min":0,"x_max":0,"o":"m 65 735 b 299 990 65 876 164 990 b 531 735 435 990 531 875 b 299 476 531 593 435 476 b 65 735 164 476 65 592 m 1044 972 l 210 0 l 64 0 l 900 972 m 424 735 b 299 890 424 818 374 890 b 174 735 225 890 174 818 b 299 578 174 649 224 578 b 424 735 372 578 424 650 m 585 240 b 818 497 585 382 683 497 b 1050 240 954 497 1050 381 b 818 -17 1050 99 954 -17 b 585 240 683 -17 585 97 m 1090 240 b 1322 497 1090 382 1188 497 b 1556 240 1458 497 1556 381 b 1322 -17 1556 99 1458 -17 b 1090 240 1188 -17 1090 97 m 943 240 b 818 399 943 325 893 399 b 693 240 744 399 693 325 b 818 83 693 154 743 83 b 943 240 892 83 943 156 m 1447 240 b 1322 399 1447 325 1397 399 b 1199 240 1249 399 1199 325 b 1322 83 1199 154 1249 83 b 1447 240 1396 83 1447 156 "},"↑":{"ha":1088,"x_min":0,"x_max":0,"o":"m 947 500 l 601 844 l 601 11 l 485 11 l 485 843 l 142 500 l 58 583 l 544 1068 l 1029 583 "},"↗":{"ha":994,"x_min":0,"x_max":0,"o":"m 850 42 l 733 42 l 733 531 l 143 -60 l 61 22 l 650 611 l 164 611 l 164 728 l 850 728 "},"→":{"ha":1192,"x_min":0,"x_max":0,"o":"m 1135 486 l 649 1 l 567 83 l 911 428 l 76 428 l 76 544 l 911 544 l 567 889 l 649 971 "},"↘":{"ha":990,"x_min":0,"x_max":0,"o":"m 850 686 l 850 0 l 164 0 l 164 117 l 651 117 l 61 706 l 144 789 l 733 199 l 733 686 "},"↓":{"ha":1085,"x_min":0,"x_max":0,"o":"m 1028 465 l 543 -19 l 460 63 l 57 465 l 140 549 l 483 204 l 483 1038 l 600 1038 l 600 203 l 946 549 "},"↙":{"ha":994,"x_min":0,"x_max":0,"o":"m 346 108 l 832 108 l 832 -8 l 146 -8 l 146 678 l 263 678 l 263 192 l 851 781 l 935 699 "},"←":{"ha":1192,"x_min":0,"x_max":0,"o":"m 1114 428 l 281 428 l 625 83 l 543 1 l 57 486 l 543 971 l 625 889 l 281 544 l 1114 544 "},"↖":{"ha":994,"x_min":0,"x_max":0,"o":"m 851 -60 l 263 529 l 263 42 l 146 42 l 146 728 l 832 728 l 832 611 l 346 611 l 935 22 "},"↔":{"ha":2019,"x_min":0,"x_max":0,"o":"m 1476 1 l 1394 83 l 1739 428 l 281 428 l 625 83 l 543 1 l 57 486 l 543 971 l 625 889 l 281 544 l 1739 544 l 1394 889 l 1476 971 l 1961 486 "},"↕":{"ha":1099,"x_min":0,"x_max":0,"o":"m 978 260 l 1032 206 l 549 -278 l 65 206 l 119 260 l 510 -131 l 510 967 l 119 576 l 65 631 l 549 1114 l 1032 631 l 978 576 l 586 968 l 586 -132 "},"○":{"ha":1208,"x_min":0,"x_max":0,"o":"m 63 486 b 604 1028 63 786 304 1028 b 1146 486 904 1028 1146 786 b 604 -56 1146 186 904 -56 b 63 486 304 -56 63 186 m 1061 486 b 604 949 1061 740 858 949 b 147 486 350 949 147 740 b 604 24 147 232 350 24 b 1061 486 858 24 1061 232 "},"◊":{"ha":811,"x_min":0,"x_max":0,"o":"m 771 486 l 465 0 l 346 0 l 40 486 l 346 972 l 465 972 m 649 486 l 406 876 l 163 486 l 406 96 "},"☹":{"ha":1142,"x_min":0,"x_max":0,"o":"m 64 488 b 571 994 64 768 289 994 b 1078 488 851 994 1078 768 b 571 -19 1078 206 851 -19 b 64 488 289 -19 64 206 m 1011 488 b 571 928 1011 731 814 928 b 129 488 326 928 129 731 b 571 46 129 243 326 46 b 1011 488 814 46 1011 243 m 331 635 b 400 747 331 696 361 747 b 469 635 439 747 469 696 b 400 519 469 571 439 519 b 331 635 361 519 331 571 m 668 635 b 738 747 668 696 699 747 b 807 635 776 747 807 696 b 738 519 807 571 776 519 b 668 635 699 519 668 571 m 576 475 b 854 208 707 475 843 385 l 807 208 b 576 425 797 357 682 425 b 344 208 468 425 353 357 l 299 208 b 576 475 308 385 443 475 "},"☺":{"ha":1142,"x_min":0,"x_max":0,"o":"m 64 488 b 571 994 64 768 289 994 b 1078 488 851 994 1078 768 b 571 -19 1078 206 851 -19 b 64 488 289 -19 64 206 m 1011 488 b 571 928 1011 731 814 928 b 129 488 326 928 129 731 b 571 46 129 243 326 46 b 1011 488 814 46 1011 243 m 331 635 b 400 747 331 696 361 747 b 469 635 439 747 469 696 b 400 519 469 571 439 519 b 331 635 361 519 331 571 m 668 635 b 738 747 668 696 699 747 b 807 635 776 747 807 696 b 738 519 807 571 776 519 b 668 635 699 519 668 571 m 275 489 b 576 175 283 313 413 175 b 876 489 738 175 867 313 l 924 489 b 576 125 913 285 763 125 b 229 489 388 125 239 285 "},"♥":{"ha":1035,"x_min":0,"x_max":0,"o":"m 42 643 b 281 913 42 906 281 913 b 518 675 281 913 514 917 b 754 913 521 917 754 913 b 993 643 754 913 993 906 b 517 72 993 471 763 225 b 42 643 506 79 44 382 "},"@":{"ha":1383,"x_min":0,"x_max":0,"o":"m 690 982 b 1324 360 1040 982 1324 732 b 1074 -17 1324 217 1285 -17 b 854 175 903 -17 860 117 b 590 -17 814 67 733 -10 b 354 165 463 -22 354 61 b 854 482 354 357 629 403 b 686 606 853 517 821 606 b 507 446 585 606 508 550 l 368 446 b 686 711 374 615 504 711 b 993 421 864 711 993 624 l 993 224 b 1093 81 993 144 1025 81 b 1224 360 1194 81 1224 240 b 690 892 1224 685 994 892 b 151 360 392 892 151 650 b 683 -186 151 54 386 -186 b 982 -99 807 -186 904 -150 l 1018 -183 b 683 -276 926 -239 806 -276 b 51 360 339 -276 51 7 b 690 982 51 696 344 982 m 618 96 b 853 385 789 108 851 283 b 500 175 642 306 500 271 b 618 96 500 128 554 92 "},"&":{"ha":1029,"x_min":0,"x_max":0,"o":"m 865 0 l 750 97 b 444 -17 665 22 553 -17 b 68 268 251 -17 68 86 b 258 510 68 371 146 467 b 144 751 201 561 144 653 b 415 989 144 894 268 989 b 685 714 574 989 685 888 l 536 714 b 415 860 536 776 514 860 b 289 733 333 860 289 788 b 399 547 289 653 357 582 l 718 286 b 711 583 751 361 756 460 l 856 583 b 831 194 907 424 889 292 l 1068 0 m 450 113 b 643 186 514 113 586 138 l 310 467 b 213 285 236 418 213 360 b 450 113 213 168 340 113 "},"¶":{"ha":849,"x_min":0,"x_max":0,"o":"m 796 896 l 681 896 l 681 -147 l 575 -147 l 575 896 l 492 896 l 492 -147 l 386 -147 l 386 367 b 39 679 165 368 39 506 b 386 992 39 853 165 990 l 796 992 "},"§":{"ha":771,"x_min":0,"x_max":0,"o":"m 594 256 b 674 107 642 224 674 176 b 404 -125 674 -7 603 -125 b 89 154 174 -125 89 22 l 228 154 b 410 -18 228 6 354 -18 b 535 97 482 -18 535 19 b 365 210 535 169 457 192 b 60 454 236 233 60 292 b 175 619 60 542 119 594 b 103 761 132 650 103 694 b 372 989 103 888 190 989 b 657 729 590 989 657 838 l 518 729 b 372 883 517 807 485 883 b 242 771 301 883 242 847 b 400 664 242 708 294 683 b 717 422 524 643 717 590 b 594 256 717 339 656 285 m 364 329 b 538 285 417 319 482 308 b 590 407 565 310 590 360 b 401 544 590 492 493 528 b 235 588 347 554 288 567 b 186 469 208 568 186 522 b 364 329 186 394 258 347 "},"©":{"ha":1199,"x_min":0,"x_max":0,"o":"m 58 486 b 600 1028 58 786 300 1028 b 1142 486 900 1028 1142 786 b 600 -56 1142 186 900 -56 b 58 486 300 -56 58 186 m 1056 486 b 600 949 1056 740 854 949 b 143 486 344 949 143 740 b 600 24 143 232 344 24 b 1056 486 854 24 1056 232 m 314 478 b 599 781 314 600 386 781 b 871 533 803 781 867 617 l 776 533 b 604 701 769 642 699 701 b 408 478 496 701 408 622 b 606 258 408 335 496 258 b 776 414 697 258 771 310 l 871 414 b 604 178 867 325 800 178 b 314 478 388 178 314 356 "},"®":{"ha":1199,"x_min":0,"x_max":0,"o":"m 600 1028 b 1142 486 900 1028 1142 786 b 600 -56 1142 186 900 -56 b 58 486 300 -56 58 186 b 600 1028 58 786 300 1028 m 600 24 b 1056 486 854 24 1056 232 b 600 949 1056 740 854 949 b 143 486 344 949 143 740 b 600 24 143 232 344 24 m 715 469 b 864 201 817 461 807 300 l 760 201 b 631 450 717 296 743 450 l 464 450 l 464 203 l 369 203 l 369 785 l 658 785 b 842 622 749 785 842 744 b 715 469 842 521 778 481 m 646 522 b 747 617 719 522 747 557 b 646 713 747 676 719 713 l 464 713 l 464 522 "},"™":{"ha":1342,"x_min":0,"x_max":0,"o":"m 531 894 l 329 894 l 329 386 l 240 386 l 240 894 l 38 894 l 38 972 l 531 972 m 1232 386 l 1144 386 l 1144 906 l 981 386 l 846 386 l 686 908 l 686 386 l 599 386 l 599 972 l 750 972 l 914 439 l 1085 972 l 1232 972 "},"°":{"ha":483,"x_min":0,"x_max":0,"o":"m 47 919 b 242 1114 47 1026 135 1114 b 436 919 349 1114 436 1026 b 242 725 436 813 349 725 b 47 919 135 725 47 813 m 356 919 b 242 1033 356 982 304 1033 b 128 919 179 1033 128 982 b 242 806 128 857 179 806 b 356 919 304 806 356 857 "},"|":{"ha":344,"x_min":0,"x_max":0,"o":"m 232 1111 l 232 -278 l 111 -278 l 111 1111 "},"¦":{"ha":344,"x_min":0,"x_max":0,"o":"m 242 1111 l 242 618 l 103 618 l 103 1111 m 242 215 l 242 -278 l 103 -278 l 103 215 "},"†":{"ha":618,"x_min":0,"x_max":0,"o":"m 576 729 l 576 604 l 379 617 l 379 389 l 346 -69 l 274 -69 l 240 389 l 240 617 l 42 604 l 42 729 l 240 715 l 240 1042 l 379 1042 l 379 715 "},"‡":{"ha":629,"x_min":0,"x_max":0,"o":"m 385 617 l 385 504 l 582 518 l 582 393 l 385 406 l 385 392 l 351 -69 l 279 -69 l 246 392 l 246 406 l 47 393 l 47 518 l 246 504 l 246 617 l 47 604 l 47 729 l 246 715 l 246 1042 l 385 1042 l 385 715 l 582 729 l 582 604 "},"̈":{"ha":0,"x_min":0,"x_max":0,"o":"m -669 908 b -583 997 -669 957 -633 997 b -496 908 -535 997 -496 957 b -583 822 -496 858 -535 822 b -669 908 -633 822 -669 858 m -335 908 b -247 997 -335 957 -297 997 b -160 908 -199 997 -160 957 b -247 822 -160 858 -199 822 b -335 908 -297 822 -335 858 "},"̇":{"ha":0,"x_min":0,"x_max":0,"o":"m -228 910 b -136 1001 -228 960 -187 1001 b -44 910 -86 1001 -44 960 b -136 817 -44 858 -86 817 b -228 910 -187 817 -228 858 "},"̀":{"ha":0,"x_min":0,"x_max":0,"o":"m -231 799 l -339 799 l -596 1028 l -417 1028 "},"́":{"ha":0,"x_min":0,"x_max":0,"o":"m -246 1028 l -503 799 l -611 799 l -425 1028 "},"̋":{"ha":0,"x_min":0,"x_max":0,"o":"m -328 1028 l -585 799 l -693 799 l -507 1028 m -53 1028 l -311 799 l -418 799 l -233 1028 "},"̂":{"ha":0,"x_min":0,"x_max":0,"o":"m -268 799 l -417 953 l -565 799 l -690 799 l -501 1028 l -332 1028 l -143 799 "},"̌":{"ha":0,"x_min":0,"x_max":0,"o":"m -143 1028 l -332 799 l -500 799 l -689 1028 l -565 1028 l -415 874 l -267 1028 "},"̆":{"ha":0,"x_min":0,"x_max":0,"o":"m -562 1028 b -417 878 -561 938 -501 878 b -271 1028 -333 878 -272 936 l -168 1028 b -417 797 -171 890 -271 797 b -665 1028 -562 797 -662 890 "},"̊":{"ha":0,"x_min":0,"x_max":0,"o":"m -589 967 b -417 1139 -589 1061 -511 1139 b -244 967 -322 1139 -244 1061 b -417 794 -244 872 -322 794 b -589 967 -511 794 -589 872 m -319 967 b -417 1064 -319 1021 -362 1064 b -514 967 -471 1064 -514 1021 b -417 869 -514 913 -471 869 b -319 967 -362 869 -319 913 "},"̃":{"ha":0,"x_min":0,"x_max":0,"o":"m -511 904 b -594 828 -557 904 -589 868 l -669 828 b -503 1000 -669 943 -582 1000 b -262 906 -408 1000 -328 906 b -182 983 -212 906 -186 946 l -108 983 b -271 811 -108 860 -203 811 b -511 904 -356 811 -436 904 "},"̄":{"ha":0,"x_min":0,"x_max":0,"o":"m -125 886 l -125 799 l -708 799 l -708 886 "},"̒":{"ha":0,"x_min":0,"x_max":0,"o":"m 0 957 l 0 840 l -115 840 l -115 957 b -10 1068 -115 1031 -58 1068 l -10 1035 b -61 957 -49 1035 -61 997 "},"̦":{"ha":0,"x_min":0,"x_max":0,"o":"m 0 -56 l 0 -171 b -104 -283 0 -246 -57 -283 l -104 -249 b -54 -171 -67 -249 -54 -211 l -115 -171 l -115 -56 "},"̧":{"ha":0,"x_min":0,"x_max":0,"o":"m -524 -181 b -446 -221 -504 -208 -469 -221 b -372 -160 -404 -221 -372 -196 b -422 -110 -372 -132 -392 -110 b -499 -143 -446 -110 -479 -121 l -578 -143 l -482 6 l -407 6 l -468 -89 b -386 -58 -447 -71 -415 -58 b -283 -156 -332 -58 -283 -99 b -450 -292 -283 -233 -357 -292 b -594 -224 -519 -292 -574 -256 "},"̨":{"ha":0,"x_min":0,"x_max":0,"o":"m -218 -131 b -143 0 -218 -87 -183 -29 l -62 0 b -115 -111 -101 -40 -115 -75 b -65 -172 -115 -142 -97 -172 b -6 -146 -37 -172 -19 -164 l -6 -206 b -97 -236 -26 -226 -61 -236 b -218 -131 -175 -236 -218 -190 "},"̵":{"ha":0,"x_min":0,"x_max":0,"o":"m -149 419 l -149 331 l -685 331 l -685 419 "},"̶":{"ha":0,"x_min":0,"x_max":0,"o":"m 0 446 l 0 358 l -833 358 l -833 446 "},"̷":{"ha":0,"x_min":0,"x_max":0,"o":"m -82 753 l -636 -22 l -751 -22 l -197 753 "},"̸":{"ha":0,"x_min":0,"x_max":0,"o":"m 129 1056 l -686 -83 l -811 -83 l 6 1056 "},"´":{"ha":833,"x_min":0,"x_max":0,"o":"m 588 1028 l 331 799 l 222 799 l 408 1028 "},"˘":{"ha":833,"x_min":0,"x_max":0,"o":"m 271 1028 b 417 878 272 938 332 878 b 563 1028 500 878 561 936 l 665 1028 b 417 797 663 890 563 797 b 168 1028 271 797 171 890 "},"ˇ":{"ha":833,"x_min":0,"x_max":0,"o":"m 690 1028 l 501 799 l 333 799 l 144 1028 l 268 1028 l 418 874 l 567 1028 "},"¸":{"ha":833,"x_min":0,"x_max":0,"o":"m 335 -181 b 413 -221 354 -208 389 -221 b 486 -160 454 -221 486 -196 b 436 -110 486 -132 467 -110 b 360 -143 413 -110 379 -121 l 281 -143 l 376 6 l 451 6 l 390 -89 b 472 -58 411 -71 443 -58 b 575 -156 526 -58 575 -99 b 408 -292 575 -233 501 -292 b 264 -224 339 -292 285 -256 "},"ˆ":{"ha":833,"x_min":0,"x_max":0,"o":"m 565 799 l 417 953 l 268 799 l 143 799 l 332 1028 l 501 1028 l 690 799 "},"¨":{"ha":833,"x_min":0,"x_max":0,"o":"m 164 908 b 250 997 164 957 200 997 b 338 908 299 997 338 957 b 250 822 338 858 299 822 b 164 908 200 822 164 858 m 499 908 b 586 997 499 957 536 997 b 674 908 635 997 674 957 b 586 822 674 858 635 822 b 499 908 536 822 499 858 "},"˙":{"ha":272,"x_min":0,"x_max":0,"o":"m 44 910 b 136 1001 44 960 85 1001 b 228 910 186 1001 228 960 b 136 817 228 858 186 817 b 44 910 85 817 44 858 "},"`":{"ha":833,"x_min":0,"x_max":0,"o":"m 603 799 l 494 799 l 238 1028 l 417 1028 "},"˝":{"ha":833,"x_min":0,"x_max":0,"o":"m 465 1028 l 208 799 l 100 799 l 286 1028 m 740 1028 l 482 799 l 375 799 l 560 1028 "},"¯":{"ha":833,"x_min":0,"x_max":0,"o":"m 708 886 l 708 799 l 125 799 l 125 886 "},"˛":{"ha":833,"x_min":0,"x_max":0,"o":"m -6 -131 b 69 0 -6 -87 29 -29 l 150 0 b 97 -111 111 -40 97 -75 b 147 -172 97 -142 115 -172 b 207 -146 175 -172 193 -164 l 207 -206 b 115 -236 186 -226 151 -236 b -6 -131 38 -236 -6 -190 "},"˚":{"ha":833,"x_min":0,"x_max":0,"o":"m 250 967 b 422 1139 250 1061 328 1139 b 594 967 517 1139 594 1061 b 422 794 594 872 517 794 b 250 967 328 794 250 872 m 519 967 b 422 1064 519 1021 476 1064 b 325 967 368 1064 325 1021 b 422 869 325 913 368 869 b 519 967 476 869 519 913 "},"˜":{"ha":833,"x_min":0,"x_max":0,"o":"m 267 904 b 183 828 221 904 189 868 l 108 828 b 275 1000 108 943 196 1000 b 515 906 369 1000 450 906 b 596 983 565 906 592 946 l 669 983 b 507 811 669 860 575 811 b 267 904 422 811 342 904 "},"¹":{"ha":356,"x_min":0,"x_max":0,"o":"m 279 417 l 183 417 l 183 885 b 29 728 169 801 131 731 l 29 825 b 153 972 89 828 151 872 l 279 972 "},"²":{"ha":535,"x_min":0,"x_max":0,"o":"m 489 504 l 489 417 l 49 417 l 50 440 l 49 440 b 286 714 49 638 165 669 b 383 815 333 732 383 754 b 278 897 383 867 331 897 b 147 757 207 897 147 861 l 49 757 b 272 979 49 874 121 979 b 481 808 406 979 481 903 b 290 632 481 703 401 672 b 154 504 218 606 168 594 "},"³":{"ha":532,"x_min":0,"x_max":0,"o":"m 364 708 b 489 576 442 689 489 644 b 269 410 489 476 399 410 b 43 610 131 410 43 488 l 140 610 b 268 492 140 539 188 492 b 393 582 342 492 393 526 b 232 675 393 640 332 675 l 232 742 b 369 815 317 742 369 767 b 260 899 369 865 321 899 b 144 783 189 899 144 854 l 49 783 b 263 979 49 897 132 979 b 464 818 381 979 464 911 b 364 708 464 761 431 725 "}," ":{"ha":139,"x_min":0,"x_max":0,"o":""},"€":{"ha":1215,"x_min":0,"x_max":0,"o":"m 717 106 b 1004 376 882 106 989 214 l 1150 376 b 718 -17 1138 142 967 -17 b 261 350 488 -17 311 128 l 38 350 l 58 432 l 249 432 b 247 482 247 449 247 465 b 249 533 247 500 247 517 l 75 533 l 96 615 l 261 615 b 717 989 311 840 488 989 b 1150 576 964 989 1138 824 l 1004 576 b 717 867 988 750 883 867 b 410 615 569 867 453 769 l 901 615 l 882 533 l 396 533 b 393 483 394 517 393 500 b 396 432 393 465 394 449 l 864 432 l 844 350 l 411 350 b 717 106 454 200 571 106 "}}}
